<svg data-v-423bf9ae="" xmlns="http://www.w3.org/2000/svg" viewBox="0 0 248.9702867198118 60" class="font"><!----><!----><!----><g data-v-423bf9ae="" id="f3d6512e-86c2-4ae7-8b3a-0e6c17f1ca93" fill="#010033" transform="matrix(5.940593835033989,0,0,5.940593835033989,-3.386137843862599,-24.475245920493023)"><path d="M0.74 14.14L0.74 14.14L0.57 14.14L0.57 14.14Q0.57 13.33 1.36 9.84L1.36 9.84L1.36 9.84Q2.14 6.36 2.14 5.99L2.14 5.99L2.14 5.99Q2.14 5.40 1.71 4.87L1.71 4.87L1.57 4.69L1.61 4.41L1.61 4.41Q2.44 4.13 4.63 4.13L4.63 4.13L4.63 4.13Q4.86 4.63 4.87 5.32L4.87 5.32L4.87 5.32Q6.51 4.12 7.67 4.12L7.67 4.12L7.67 4.12Q9.00 4.12 9.25 5.26L9.25 5.26L9.25 5.26Q10.84 4.12 12.01 4.12L12.01 4.12L12.01 4.12Q12.81 4.12 13.31 4.56L13.31 4.56L13.31 4.56Q13.82 5.00 13.82 5.83L13.82 5.83L13.82 5.83Q13.82 6.66 13.21 9.00L13.21 9.00L13.21 9.00Q12.60 11.33 12.60 12.31L12.60 12.31L12.60 12.31Q12.60 12.67 12.75 12.67L12.75 12.67L12.75 12.67Q13.05 12.67 13.47 12.50L13.47 12.50L13.76 13.30L13.76 13.30Q12.46 14.22 11.19 14.22L11.19 14.22L11.19 14.22Q10.58 14.22 10.22 13.86L10.22 13.86L10.22 13.86Q9.86 13.50 9.86 12.79L9.86 12.79L9.86 12.79Q9.86 12.08 10.44 9.71L10.44 9.71L10.44 9.71Q11.02 7.34 11.02 6.82L11.02 6.82L11.02 6.82Q11.02 6.30 10.89 6.13L10.89 6.13L10.89 6.13Q10.77 5.95 10.40 5.95L10.40 5.95L10.40 5.95Q10.04 5.95 9.25 6.48L9.25 6.48L9.25 6.48Q9.16 7.13 8.82 8.57L8.82 8.57L8.82 8.57Q7.94 12.25 7.94 13.79L7.94 13.79L7.94 13.79Q7.25 14.15 5.57 14.15L5.57 14.15L5.19 14.15L5.19 14.15Q5.19 12.87 5.85 10.12L5.85 10.12L5.85 10.12Q6.51 7.38 6.51 6.83L6.51 6.83L6.51 6.83Q6.51 6.29 6.39 6.12L6.39 6.12L6.39 6.12Q6.27 5.95 5.90 5.95L5.90 5.95L5.90 5.95Q5.53 5.95 4.73 6.50L4.73 6.50L4.73 6.50Q4.61 7.20 4.21 8.82L4.21 8.82L4.21 8.82Q3.30 12.61 3.30 13.78L3.30 13.78L3.30 13.78Q2.69 14.14 0.74 14.14ZM22.58 5.36L22.58 5.36L22.58 5.36Q22.99 5.92 23.18 6.55L23.18 6.55L23.18 6.55Q23.38 7.18 23.38 8.05L23.38 8.05L23.38 8.05Q23.38 8.92 23.08 9.98L23.08 9.98L23.08 9.98Q22.78 11.05 22.18 12.02L22.18 12.02L22.18 12.02Q21.59 12.99 20.54 13.61L20.54 13.61L20.54 13.61Q19.49 14.22 18.14 14.22L18.14 14.22L18.14 14.22Q16.51 14.22 15.57 13.12L15.57 13.12L15.57 13.12Q14.63 12.01 14.63 10.33L14.63 10.33L14.63 10.33Q14.63 8.65 15.27 7.26L15.27 7.26L15.27 7.26Q15.90 5.87 17.09 4.99L17.09 4.99L17.09 4.99Q18.27 4.12 19.73 4.12L19.73 4.12L19.73 4.12Q20.71 4.12 21.44 4.45L21.44 4.45L21.44 4.45Q22.18 4.79 22.58 5.36ZM17.89 12.96L17.89 12.96L17.89 12.96Q18.14 13.16 18.63 13.16L18.63 13.16L18.63 13.16Q19.11 13.16 19.54 12.59L19.54 12.59L19.54 12.59Q19.96 12.03 20.20 11.13L20.20 11.13L20.20 11.13Q20.65 9.37 20.65 7.48L20.65 7.48L20.65 7.48Q20.65 5.18 19.53 5.18L19.53 5.18L19.53 5.18Q19.00 5.18 18.57 5.68L18.57 5.68L18.57 5.68Q18.14 6.17 17.89 6.97L17.89 6.97L17.89 6.97Q17.37 8.60 17.37 10.46L17.37 10.46L17.37 10.46Q17.37 12.54 17.89 12.96ZM24.22 14.14L24.22 14.14L23.98 14.14L23.98 14.14Q23.98 13.30 24.77 9.86L24.77 9.86L24.77 9.86Q25.55 6.41 25.55 5.87L25.55 5.87L25.55 5.87Q25.55 5.63 25.40 5.33L25.40 5.33L25.40 5.33Q25.26 5.04 25.12 4.87L25.12 4.87L24.98 4.69L25.02 4.41L25.02 4.41Q25.89 4.12 28.04 4.12L28.04 4.12L28.04 4.12Q28.29 4.65 28.29 5.32L28.29 5.32L28.29 5.35L28.29 5.35Q29.97 4.12 31.23 4.12L31.23 4.12L31.23 4.12Q31.98 4.12 32.45 4.56L32.45 4.56L32.45 4.56Q32.93 5.00 32.93 5.82L32.93 5.82L32.93 5.82Q32.93 6.64 32.28 9.11L32.28 9.11L32.28 9.11Q31.64 11.59 31.64 12.13L31.64 12.13L31.64 12.13Q31.64 12.67 31.82 12.67L31.82 12.67L31.82 12.67Q32.07 12.67 32.58 12.49L32.58 12.49L32.87 13.29L32.87 13.29Q31.50 14.22 30.32 14.22L30.32 14.22L30.32 14.22Q29.65 14.22 29.30 13.87L29.30 13.87L29.30 13.87Q28.94 13.51 28.94 12.68L28.94 12.68L28.94 12.68Q28.94 11.86 29.55 9.54L29.55 9.54L29.55 9.54Q30.16 7.22 30.16 6.66L30.16 6.66L30.16 6.66Q30.16 5.95 29.53 5.95L29.53 5.95L29.53 5.95Q29.06 5.95 28.14 6.52L28.14 6.52L28.14 6.52Q28.01 7.20 27.61 8.85L27.61 8.85L27.61 8.85Q26.71 12.61 26.71 13.78L26.71 13.78L26.71 13.78Q26.10 14.14 24.22 14.14ZM41.68 5.36L41.68 5.36L41.68 5.36Q42.08 5.92 42.28 6.55L42.28 6.55L42.28 6.55Q42.48 7.18 42.48 8.05L42.48 8.05L42.48 8.05Q42.48 8.92 42.18 9.98L42.18 9.98L42.18 9.98Q41.87 11.05 41.28 12.02L41.28 12.02L41.28 12.02Q40.68 12.99 39.63 13.61L39.63 13.61L39.63 13.61Q38.58 14.22 37.24 14.22L37.24 14.22L37.24 14.22Q35.60 14.22 34.66 13.12L34.66 13.12L34.66 13.12Q33.73 12.01 33.73 10.33L33.73 10.33L33.73 10.33Q33.73 8.65 34.36 7.26L34.36 7.26L34.36 7.26Q35 5.87 36.18 4.99L36.18 4.99L36.18 4.99Q37.37 4.12 38.82 4.12L38.82 4.12L38.82 4.12Q39.80 4.12 40.54 4.45L40.54 4.45L40.54 4.45Q41.27 4.79 41.68 5.36ZM36.99 12.96L36.99 12.96L36.99 12.96Q37.24 13.16 37.72 13.16L37.72 13.16L37.72 13.16Q38.21 13.16 38.63 12.59L38.63 12.59L38.63 12.59Q39.06 12.03 39.30 11.13L39.30 11.13L39.30 11.13Q39.75 9.37 39.75 7.48L39.75 7.48L39.75 7.48Q39.75 5.18 38.63 5.18L38.63 5.18L38.63 5.18Q38.09 5.18 37.67 5.68L37.67 5.68L37.67 5.68Q37.24 6.17 36.99 6.97L36.99 6.97L36.99 6.97Q36.47 8.60 36.47 10.46L36.47 10.46L36.47 10.46Q36.47 12.54 36.99 12.96Z"></path></g><!----><!----></svg>