<svg clip-rule="evenodd" fill-rule="evenodd" stroke-linecap="round" stroke-linejoin="round" stroke-miterlimit="1.41421" viewBox="0 0 252 252" xmlns="http://www.w3.org/2000/svg" xmlns:xlink="http://www.w3.org/1999/xlink"><clipPath id="a"><path clip-rule="evenodd" d="m188.5 17.816c-59.747-34.495-136.259-13.993-170.753 45.753-34.495 59.747-13.994 136.259 45.753 170.754 59.747 34.494 136.258 13.993 170.753-45.754 34.495-59.746 13.994-136.258-45.753-170.753z"/></clipPath><path d="m-429.922-315.219h1111.84v1497.61h-1111.84z" fill="none"/><circle cx="126.002" cy="126.071" fill="#2f2e2f" r="125"/><g clip-path="url(#a)"><g fill-opacity=".75" opacity=".5625"><path d="m49.735 249.833-64.535-113.063 226.126-132.038 64.535 113.063z" fill="#d8492d"/><g fill="#808080"><path d="m97.89 2.637-59.767 287.102-66.146-252.595 125.913-34.507z"/><path d="m-19.916 68.104 284.9 57.284-251.827 69.013-33.073-126.297z"/><path d="m164.036 255.232 59.768-287.101 66.146 252.595z"/></g></g></g><g fill="none" stroke="#f7f7f6" stroke-width="3"><path d="m158.745 103.301v-47.422h-104.495v74.221h16.467l-16.467 27.447 45.639-25.431"/><path d="m70.717 74.632h71.831"/><path d="m70.717 93.092h71.831"/><path d="m70.717 111.552h29.172"/><path d="m204.384 177.521h-16.467l16.467 27.447-49.259-27.447h-55.236v-74.22h104.495z"/></g><path d="m152.286 152.55v4.997h4.996v-4.997zm-7.337-17.104h3.826c0-1.05.12-2.025.36-2.925.24-.901.623-1.681 1.148-2.341s1.178-1.185 1.958-1.575 1.711-.585 2.791-.585c1.62 0 2.903.465 3.848 1.395s1.478 2.22 1.598 3.871c.06 1.11-.075 2.055-.405 2.835-.33.781-.773 1.493-1.328 2.139-.555.645-1.155 1.26-1.8 1.845s-1.261 1.223-1.846 1.913-1.08 1.478-1.485 2.363-.638 1.958-.698 3.218v2.116h3.826v-1.756c0-.78.113-1.477.338-2.093.225-.615.525-1.185.9-1.71s.795-1.02 1.26-1.485c.465-.466.938-.923 1.418-1.373.48-.48.953-.975 1.418-1.486.465-.51.878-1.065 1.238-1.665s.652-1.268.878-2.003c.225-.735.337-1.568.337-2.498 0-1.44-.232-2.716-.698-3.826-.465-1.11-1.117-2.048-1.958-2.813-.84-.765-1.837-1.351-2.993-1.756-1.155-.405-2.438-.607-3.848-.607-1.561 0-2.971.27-4.231.81-1.261.54-2.326 1.298-3.196 2.273s-1.538 2.123-2.003 3.443c-.465 1.321-.683 2.746-.653 4.276z" fill="#f7f7f6" fill-rule="nonzero"/></svg>