<svg clip-rule="evenodd" fill-rule="evenodd" stroke-linecap="round" stroke-linejoin="round" stroke-miterlimit="1.41421" viewBox="0 0 252 252" xmlns="http://www.w3.org/2000/svg" xmlns:xlink="http://www.w3.org/1999/xlink"><clipPath id="a"><path clip-rule="evenodd" d="m234.253-216.431c-34.495-59.746-111.006-80.248-170.753-45.753-59.747 34.495-80.248 111.007-45.753 170.753 34.494 59.747 111.006 80.248 170.753 45.754 59.747-34.495 80.248-111.007 45.753-170.754z"/></clipPath><clipPath id="b"><path clip-rule="evenodd" d="m234.253 64.996c-34.495-59.746-111.006-80.247-170.753-45.753-59.747 34.495-80.248 111.007-45.753 170.753 34.494 59.747 111.006 80.248 170.753 45.754 59.747-34.495 80.248-111.007 45.753-170.754z"/></clipPath><path d="m-429.922-595.219h1111.84v1497.61h-1111.84z" fill="none"/><g clip-path="url(#a)"><path d="m94.359-23.054 195.311-218.754-69.014 251.827z" fill="#808080" fill-opacity=".75" opacity=".5625"/></g><circle cx="126.002" cy="127.498" fill="#2f2e2f" r="125"/><g clip-path="url(#b)"><g fill-opacity=".75" opacity=".5625"><path d="m-1.929 196.546.642-130.182 261.85-1.286-.642 130.183-261.85 1.285z" fill="#d8492d"/><g fill="#808080"><path d="m163.372 6.546-195.311 218.754 69.014-251.827 126.297 33.073z"/><path d="m28.616 4.339 218.088 192.059-252.595-66.146 34.507-125.913z"/><path d="m94.359 258.373 195.311-218.754-69.014 251.827z"/></g></g></g><g fill="none" stroke="#fff" stroke-width="3"><path d="m126.002 41.475 80.053 142.047h-160.106z"/><path d="m126.002 81.531v56.44"/><path d="m126.002 156.663v6.817"/></g></svg>