<svg clip-rule="evenodd" fill-rule="evenodd" stroke-linejoin="round" stroke-miterlimit="2" viewBox="0 0 1164 238" xmlns="http://www.w3.org/2000/svg"><g fill="#32373c" fill-rule="nonzero"><path d="m0 71.45h-1.846c-9.491 0-10.809-2.373-10.809-14.501v-57.211h12.655c27.418 0 32.428 20.035 32.428 35.591 0 16.083-5.01 36.121-32.428 36.121m-111.258-36.65v-35.062h10.808c11.864 0 17.139 8.171 17.139 17.662 0 9.229-5.275 17.4-17.139 17.4zm110.467-42.971h-47.193v5.007c14.763 0 17.135 3.164 17.135 21.884v33.748c0 18.718-2.372 22.146-17.135 22.146-11.335-1.582-18.982-7.648-29.529-19.247l-12.125-13.181c16.344-2.902 25.044-13.184 25.044-24.786 0-14.498-12.39-25.571-35.591-25.571h-46.403v5.007c14.763 0 17.136 3.164 17.136 21.884v33.748c0 18.718-2.373 22.146-17.136 22.146v5.007h52.466v-5.007c-14.763 0-17.136-3.428-17.136-22.146v-9.491h4.481l29.264 36.644h76.722c37.703 0 54.047-20.035 54.047-44.03 0-23.989-16.344-43.762-54.047-43.762" transform="translate(662.283 96.234)"/><path d="m0 39.552 18.191-53.789c5.275-15.553 2.902-20.034-13.972-20.034v-5.275h49.567v5.275c-16.61 0-20.564 3.954-27.156 23.201l-30.058 90.168h-3.426l-26.894-82.523-27.417 82.523h-3.429l-29.264-90.168c-6.327-19.247-10.546-23.201-25.838-23.201v-5.275h58.531v5.275c-15.557 0-19.776 3.69-14.237 20.034l17.662 53.789 26.629-79.098h5.011z" transform="translate(368.849 101.241)"/><path d="m0-78.298c-24.254 0-32.692 21.881-32.692 39.017 0 17.403 8.438 39.022 32.692 39.022 24.522 0 32.957-21.619 32.957-39.022 0-17.136-8.435-39.017-32.957-39.017m0 86.475c-28.999 0-52.73-21.355-52.73-47.458 0-25.836 23.731-47.194 52.73-47.194 29.003 0 52.73 21.358 52.73 47.194 0 26.103-23.727 47.458-52.73 47.458" transform="translate(458.484 171.107)"/><path d="m0-95.178h-15.027v45.876h15.027c14.766 0 21.619-10.281 21.619-22.672 0-12.654-6.853-23.204-21.619-23.204m5.801 99.397v5.272h-60.374v-5.272c17.665 0 20.828-4.481 20.828-30.848v-42.181c0-26.368-3.163-30.584-20.828-30.584v-5.275h54.573c27.156 0 42.187 13.975 42.187 32.695 0 18.192-15.031 32.428-42.187 32.428h-15.027v12.917c0 26.367 3.163 30.848 20.828 30.848" transform="translate(774.855 166.364)"/><path d="m0-1.85v-35.062h10.808c11.864 0 17.139 8.171 17.139 17.662 0 9.229-5.275 17.4-17.139 17.4zm139.728 20.041-1.317 4.745c-2.373 8.7-5.275 11.864-23.992 11.864h-3.693c-13.708 0-16.08-3.164-16.08-21.884v-12.126c20.563 0 22.145 1.844 22.145 15.554h5.011v-39.284h-5.011c0 13.71-1.582 15.553-22.145 15.553v-29.525h14.498c18.72 0 21.619 3.164 23.992 11.864l1.32 5.007h4.216l-1.843-24.78h-77.513v5.007c14.763 0 17.135 3.163 17.135 21.884v33.748c0 17.123-2.016 21.437-13.655 22.051-11.064-1.688-18.66-7.723-29.051-19.152l-12.129-13.181c16.348-2.902 25.048-13.184 25.048-24.786 0-14.498-12.39-25.571-35.591-25.571h-46.403v5.007c14.763 0 17.136 3.163 17.136 21.884v33.748c0 18.717-2.373 22.146-17.136 22.146v5.007h52.465v-5.007c-14.762 0-17.135-3.429-17.135-22.146v-9.491h4.481l29.264 36.644h108.356l1.581-24.78z" transform="translate(858.434 132.884)"/><path d="m0 94.652c-10.547 0-19.776-5.537-23.73-8.965-1.318 1.32-3.69 5.275-4.217 8.965h-5.01v-36.382h5.272c2.111 17.4 14.237 27.682 29.793 27.682 8.436 0 15.293-4.746 15.293-12.655 0-6.854-6.066-12.129-16.875-17.136l-15.027-7.118c-10.547-5.013-18.456-13.713-18.456-25.312 0-12.655 11.864-23.463 28.212-23.463 8.7 0 16.08 3.164 20.564 6.853 1.317-1.055 2.634-3.957 3.428-7.121h5.007v31.114h-5.536c-1.847-12.393-8.7-22.675-22.672-22.675-7.383 0-14.24 4.219-14.24 10.811 0 6.853 5.537 10.544 18.194 16.345l14.498 7.118c12.658 6.062 17.665 15.821 17.665 23.73 0 16.61-14.501 28.209-32.163 28.209" transform="translate(1051.686 84.632)"/><path d="m0 94.652c-10.547 0-19.776-5.537-23.73-8.965-1.318 1.32-3.691 5.275-4.217 8.965h-5.01v-36.382h5.272c2.111 17.4 14.236 27.682 29.793 27.682 8.436 0 15.292-4.746 15.292-12.655 0-6.854-6.066-12.129-16.874-17.136l-15.027-7.118c-10.547-5.013-18.456-13.713-18.456-25.312 0-12.655 11.864-23.463 28.212-23.463 8.7 0 16.079 3.164 20.563 6.853 1.318-1.055 2.635-3.957 3.426-7.121h5.01v31.114h-5.537c-1.846-12.393-8.7-22.675-22.672-22.675-7.382 0-14.239 4.219-14.239 10.811 0 6.853 5.536 10.544 18.194 16.345l14.498 7.118c12.658 6.062 17.665 15.821 17.665 23.73 0 16.61-14.501 28.209-32.163 28.209" transform="translate(1131.406 84.632)"/><path d="m0-237.288c-65.525 0-118.644 53.119-118.644 118.644s53.119 118.644 118.644 118.644 118.644-53.119 118.644-118.644-53.119-118.644-118.644-118.644m0 7.119c15.059 0 29.664 2.947 43.409 8.761 6.606 2.794 12.979 6.253 18.941 10.281 5.907 3.991 11.462 8.574 16.51 13.623 5.049 5.048 9.632 10.603 13.623 16.51 4.028 5.962 7.487 12.335 10.281 18.941 5.814 13.745 8.761 28.35 8.761 43.409s-2.947 29.664-8.761 43.409c-2.794 6.606-6.253 12.979-10.281 18.941-3.991 5.907-8.574 11.462-13.623 16.51-5.048 5.049-10.603 9.632-16.51 13.623-5.962 4.028-12.335 7.487-18.941 10.281-13.745 5.814-28.35 8.761-43.409 8.761s-29.664-2.947-43.408-8.761c-6.607-2.794-12.98-6.253-18.942-10.281-5.907-3.991-11.462-8.574-16.51-13.623-5.049-5.048-9.632-10.603-13.623-16.51-4.027-5.962-7.487-12.335-10.281-18.941-5.814-13.745-8.761-28.35-8.761-43.409s2.947-29.664 8.761-43.409c2.794-6.606 6.254-12.979 10.281-18.941 3.991-5.907 8.574-11.462 13.623-16.51 5.048-5.049 10.603-9.632 16.51-13.623 5.962-4.028 12.335-7.487 18.942-10.281 13.744-5.814 28.349-8.761 43.408-8.761" transform="translate(118.644 237.288)"/><path d="m0-94.868c.424 3.149.665 6.527.665 10.166 0 10.029-1.879 21.307-7.521 35.411l-30.197 87.31c29.394-17.137 49.161-48.982 49.161-85.456 0-17.19-4.392-33.35-12.108-47.431m-85.025 56.079-29.669 86.197c8.861 2.606 18.228 4.028 27.932 4.028 11.514 0 22.559-1.987 32.835-5.605-.265-.423-.509-.872-.71-1.363zm65.009-13.635c0-12.223-4.391-20.682-8.151-27.266-5.012-8.148-9.712-15.041-9.712-23.189 0-9.087 6.891-17.547 16.603-17.547.439 0 .854.053 1.28.08-17.59-16.117-41.026-25.958-66.766-25.958-34.543 0-64.929 17.724-82.609 44.562 2.322.073 4.509.12 6.364.12 10.339 0 26.351-1.257 26.351-1.257 5.327-.312 5.957 7.518.632 8.148 0 0-5.358.627-11.315.939l36.003 107.094 21.64-64.89-15.403-42.204c-5.327-.312-10.37-.939-10.37-.939-5.33-.315-4.705-8.46.627-8.148 0 0 16.324 1.257 26.039 1.257 10.339 0 26.354-1.257 26.354-1.257 5.329-.312 5.956 7.518.629 8.148 0 0-5.363.627-11.314.939l35.73 106.279 10.2-32.32c4.531-14.124 7.188-24.131 7.188-32.591m-165.616 4.987c0 39.133 22.741 72.954 55.725 88.978l-47.164-129.215c-5.486 12.295-8.561 25.902-8.561 40.237" transform="translate(205.406 166.078)"/></g></svg>