<svg clip-rule="evenodd" fill-rule="evenodd" stroke-linecap="round" stroke-linejoin="round" stroke-miterlimit="1.41421" viewBox="0 0 252 252" xmlns="http://www.w3.org/2000/svg" xmlns:xlink="http://www.w3.org/1999/xlink"><clipPath id="a"><path clip-rule="evenodd" d="m234.025 63.787c-34.494-59.747-111.006-80.248-170.753-45.754-59.746 34.495-80.248 111.007-45.753 170.754 34.495 59.746 111.007 80.248 170.753 45.753 59.747-34.495 80.248-111.007 45.753-170.753z"/></clipPath><clipPath id="b"><circle clip-rule="evenodd" cx="125.77" cy="126.285" r="125"/></clipPath><clipPath id="c"><path clip-rule="evenodd" d="m125.77 1.285c68.99 0 125 56.01 125 125 0 68.989-56.01 125-125 125-68.989 0-125-56.011-125-125 0-68.99 56.011-125 125-125z"/></clipPath><clipPath id="d"><path clip-rule="evenodd" d="m305.445 537.926-456.891 173.928-190.611-500.718 456.891-173.927z"/></clipPath><path d="m-400-305h1111.84v1497.61h-1111.84z" fill="none"/><circle cx="125.77" cy="126.285" fill="#2d2d2d" r="125"/><g clip-path="url(#a)"><g fill-opacity=".75" opacity=".5625"><path d="m-2.157 195.337.643-130.183 261.85-1.286-.643 130.183-261.85 1.286z" fill="#ff9100"/><g fill="#808080"><path d="m163.145 5.337-195.311 218.753 69.013-251.826 126.298 33.073z"/><path d="m28.388 3.129 218.089 192.06-252.595-66.146 34.506-125.914z"/><path d="m94.131 257.163 195.311-218.753-69.013 251.826z"/></g></g></g><g clip-path="url(#b)" fill="#f7f7f6" fill-rule="nonzero"><path d="m157.336 75.154-16.892-7.418v-1.723l16.892-8.42v2.62l-13.746 6.521 13.746 5.766z"/><path d="m176.521 74.152c0 1.793-.668 3.176-2.004 4.148-1.336.973-3.211 1.459-5.625 1.459-2.555 0-4.547-.404-5.977-1.212v-2.708c.926.469 1.919.838 2.98 1.108 1.06.269 2.083.404 3.067.404 1.524 0 2.696-.243 3.516-.729.82-.487 1.23-1.228 1.23-2.224 0-.75-.325-1.392-.975-1.925-.651-.533-1.919-1.163-3.806-1.889-1.793-.668-3.067-1.251-3.823-1.749s-1.318-1.064-1.688-1.697c-.369-.633-.553-1.388-.553-2.267 0-1.571.638-2.81 1.916-3.718 1.277-.908 3.029-1.362 5.256-1.362 2.074 0 4.101.422 6.082 1.265l-1.037 2.373c-1.934-.797-3.686-1.195-5.256-1.195-1.383 0-2.426.217-3.129.65-.703.434-1.055 1.032-1.055 1.793 0 .516.132.955.396 1.319.263.363.688.709 1.274 1.037s1.711.803 3.375 1.424c2.285.832 3.829 1.67 4.632 2.513.803.844 1.204 1.905 1.204 3.182z"/><path d="m190.766 79.759c-2.789 0-4.948-.858-6.477-2.575-1.53-1.717-2.294-4.145-2.294-7.286 0-3.223.776-5.713 2.329-7.471 1.553-1.757 3.764-2.636 6.636-2.636.925 0 1.851.099 2.777.298.926.2 1.652.434 2.18.704l-.897 2.478c-.644-.258-1.348-.472-2.109-.641-.762-.17-1.436-.255-2.022-.255-3.914 0-5.871 2.496-5.871 7.488 0 2.367.478 4.184 1.433 5.449.955 1.266 2.37 1.899 4.245 1.899 1.605 0 3.252-.346 4.939-1.038v2.584c-1.289.668-2.912 1.002-4.869 1.002z"/><path d="m210.795 59.791c.855 0 1.623.07 2.302.211l-.404 2.707c-.797-.176-1.5-.264-2.109-.264-1.559 0-2.892.633-3.999 1.898-1.108 1.266-1.661 2.842-1.661 4.729v10.336h-2.918v-19.266h2.408l.334 3.569h.14c.715-1.254 1.577-2.221 2.584-2.901 1.008-.68 2.116-1.019 3.323-1.019z"/><path d="m221.419 79.408h-2.918v-19.266h2.918zm-3.164-24.486c0-.668.164-1.158.492-1.468.328-.311.738-.466 1.231-.466.468 0 .873.158 1.212.475.34.316.51.802.51 1.459 0 .656-.17 1.145-.51 1.467-.339.323-.744.484-1.212.484-.493 0-.903-.161-1.231-.484-.328-.322-.492-.811-.492-1.467z"/><path d="m238.371 79.759c-1.254 0-2.399-.231-3.436-.694s-1.907-1.175-2.611-2.136h-.211c.141 1.125.211 2.192.211 3.2v7.927h-2.918v-27.914h2.374l.404 2.637h.14c.75-1.055 1.623-1.816 2.62-2.285.996-.469 2.138-.703 3.427-.703 2.555 0 4.527.873 5.915 2.619 1.389 1.746 2.083 4.195 2.083 7.347 0 3.165-.706 5.623-2.118 7.374-1.412 1.752-3.372 2.628-5.88 2.628zm-.422-17.49c-1.968 0-3.392.545-4.271 1.635s-1.33 2.824-1.354 5.203v.65c0 2.707.452 4.644 1.354 5.81s2.35 1.749 4.342 1.749c1.664 0 2.968-.674 3.911-2.021.943-1.348 1.415-3.206 1.415-5.573 0-2.402-.472-4.245-1.415-5.528s-2.271-1.925-3.982-1.925z"/><path d="m181.336 133.154-16.892-7.418v-1.723l16.892-8.42v2.62l-13.746 6.521 13.746 5.766z"/><path d="m190.08 130.324v-.949c0-1.371.21-2.499.632-3.384s1.207-1.819 2.356-2.804c1.594-1.348 2.598-2.361 3.014-3.041s.624-1.5.624-2.461c0-1.195-.383-2.118-1.151-2.768-.767-.651-1.872-.976-3.313-.976-.926 0-1.829.108-2.707.325-.879.217-1.887.613-3.024 1.187l-1.037-2.373c2.215-1.16 4.529-1.741 6.943-1.741 2.239 0 3.979.551 5.221 1.653 1.242 1.101 1.863 2.654 1.863 4.658 0 .855-.114 1.608-.342 2.259-.229.65-.566 1.265-1.011 1.846-.445.58-1.406 1.514-2.883 2.803-1.184 1.008-1.966 1.846-2.347 2.514-.38.668-.571 1.558-.571 2.672v.58zm-.862 5.221c0-1.594.703-2.391 2.11-2.391.679 0 1.204.205 1.573.615s.554 1.002.554 1.776c0 .75-.188 1.333-.563 1.749s-.896.624-1.564.624c-.61 0-1.114-.185-1.512-.554-.399-.369-.598-.976-.598-1.819z"/><path d="m214.309 137.759c-1.254 0-2.399-.231-3.436-.694s-1.908-1.175-2.611-2.136h-.211c.141 1.125.211 2.192.211 3.2v7.927h-2.918v-27.914h2.373l.405 2.637h.14c.75-1.055 1.623-1.816 2.619-2.285.997-.469 2.139-.703 3.428-.703 2.555 0 4.527.873 5.915 2.619 1.389 1.746 2.083 4.195 2.083 7.347 0 3.165-.706 5.623-2.118 7.374-1.412 1.752-3.372 2.628-5.88 2.628zm-.422-17.49c-1.968 0-3.392.545-4.271 1.635s-1.33 2.824-1.354 5.203v.65c0 2.707.451 4.644 1.354 5.81.902 1.166 2.349 1.749 4.342 1.749 1.664 0 2.967-.674 3.911-2.021.943-1.348 1.415-3.206 1.415-5.573 0-2.402-.472-4.245-1.415-5.528-.944-1.283-2.271-1.925-3.982-1.925z"/><path d="m242.388 137.408v-12.463c0-1.57-.357-2.742-1.072-3.516-.715-.773-1.834-1.16-3.357-1.16-2.028 0-3.507.551-4.439 1.653-.931 1.101-1.397 2.906-1.397 5.414v10.072h-2.918v-27.352h2.918v8.28c0 .996-.047 1.822-.141 2.478h.176c.574-.926 1.392-1.655 2.452-2.188 1.061-.534 2.271-.8 3.63-.8 2.356 0 4.122.559 5.3 1.679 1.178 1.119 1.766 2.897 1.766 5.334v12.569z"/><path d="m157.336 191.154-16.892-7.418v-1.723l16.892-8.42v2.62l-13.746 6.521 13.746 5.766z"/><path d="m176.521 190.152c0 1.793-.668 3.176-2.004 4.148-1.336.973-3.211 1.459-5.625 1.459-2.555 0-4.547-.404-5.977-1.212v-2.708c.926.469 1.919.838 2.98 1.108 1.06.269 2.083.404 3.067.404 1.524 0 2.696-.243 3.516-.729.82-.487 1.23-1.228 1.23-2.224 0-.75-.325-1.392-.975-1.925-.651-.533-1.919-1.163-3.806-1.889-1.793-.668-3.067-1.251-3.823-1.749s-1.318-1.064-1.688-1.697c-.369-.633-.553-1.388-.553-2.267 0-1.571.638-2.81 1.916-3.718 1.277-.908 3.029-1.362 5.256-1.362 2.074 0 4.101.422 6.082 1.265l-1.037 2.373c-1.934-.797-3.686-1.195-5.256-1.195-1.383 0-2.426.217-3.129.65-.703.434-1.055 1.032-1.055 1.793 0 .516.132.955.396 1.319.263.363.688.709 1.274 1.037s1.711.803 3.375 1.424c2.285.832 3.829 1.67 4.632 2.513.803.844 1.204 1.905 1.204 3.182z"/><path d="m189.29 193.351c.515 0 1.013-.038 1.494-.114.48-.076.861-.155 1.142-.237v2.232c-.316.152-.782.278-1.397.378s-1.169.149-1.661.149c-3.727 0-5.59-1.962-5.59-5.888v-11.461h-2.76v-1.406l2.76-1.213 1.23-4.114h1.688v4.465h5.59v2.268h-5.59v11.338c0 1.16.275 2.05.826 2.672.551.621 1.307.931 2.268.931z"/><path d="m194.517 176.142h3.129l4.219 10.987c.926 2.507 1.5 4.318 1.723 5.431h.14c.153-.597.472-1.62.958-3.067.487-1.447 2.077-5.898 4.773-13.351h3.129l-8.28 21.938c-.82 2.168-1.778 3.706-2.874 4.614-1.095.908-2.44 1.362-4.034 1.362-.89 0-1.769-.099-2.637-.299v-2.337c.645.14 1.366.21 2.163.21 2.004 0 3.433-1.125 4.289-3.375l1.072-2.742z"/><path d="m217.517 168.056h2.918v27.352h-2.918z"/><path d="m236.561 195.759c-2.848 0-5.095-.867-6.741-2.601-1.647-1.735-2.47-4.143-2.47-7.225 0-3.105.764-5.572 2.294-7.4 1.529-1.828 3.583-2.742 6.161-2.742 2.414 0 4.324.794 5.73 2.381 1.407 1.588 2.11 3.683 2.11 6.285v1.845h-13.272c.059 2.262.63 3.979 1.714 5.151s2.61 1.758 4.579 1.758c2.074 0 4.125-.434 6.153-1.301v2.601c-1.032.446-2.007.765-2.927.958-.92.194-2.03.29-3.331.29zm-.791-17.525c-1.547 0-2.781.504-3.7 1.512-.92 1.008-1.462 2.402-1.626 4.183h10.072c0-1.84-.41-3.249-1.231-4.227-.82-.979-1.992-1.468-3.515-1.468z"/></g><g clip-path="url(#c)" fill="none"><path d="m305.445 537.926-456.891 173.928-190.611-500.718 456.891-173.927z"/><g clip-path="url(#d)" stroke="#f7f7f6" stroke-width="3"><path d="m67.527 135.133c-1.24-9.428 1.632-25.099 9.692-45.616 12.494-31.804 36.901-48.028 36.901-48.028s6.126 28.219-6.368 60.023c-8.06 20.517-16.622 33.953-23.947 40.016l3.191 1.254c-16.048 56.16-55.434 157.289-76.649 211.8-58.459 148.811-142.604 363.006-160.415 356.009s66.334-221.191 124.794-370.002c21.472-54.388 62.726-154.834 89.193-206.873z"/><path d="m67.527 135.133 16.278 6.395"/></g></g></svg>