<svg clip-rule="evenodd" fill-rule="evenodd" stroke-linecap="round" stroke-linejoin="round" stroke-miterlimit="1.41421" viewBox="0 0 252 252" xmlns="http://www.w3.org/2000/svg" xmlns:xlink="http://www.w3.org/1999/xlink"><clipPath id="a"><path clip-rule="evenodd" d="m17.105 333.966c34.495-59.747 111.006-80.248 170.753-45.754 59.747 34.495 80.248 111.007 45.753 170.754-34.495 59.746-111.006 80.247-170.753 45.753-59.747-34.495-80.248-111.007-45.753-170.753z"/></clipPath><clipPath id="b"><path clip-rule="evenodd" d="m187.856 17.485c-59.746-34.494-136.258-13.993-170.753 45.753-34.495 59.747-13.993 136.259 45.753 170.754 59.747 34.494 136.259 13.993 170.753-45.754 34.495-59.746 13.994-136.258-45.753-170.753z"/></clipPath><clipPath id="c"><path clip-rule="evenodd" d="m233.607-207.487c-34.494-59.746-111.006-80.248-170.753-45.753-59.746 34.495-80.248 111.007-45.753 170.753 34.495 59.747 111.007 80.248 170.753 45.753 59.747-34.494 80.248-111.006 45.753-170.753z"/></clipPath><path d="m-84.461-577h1111.84v1497.61h-1111.84z" fill="none"/><g clip-path="url(#a)"><path d="m87.986 275.516 195.311 218.753-69.014-251.826z" fill="#808080" fill-opacity=".75" opacity=".5625"/></g><circle cx="125.356" cy="125.738" fill="#2f2e2f" r="125"/><g clip-path="url(#b)"><g opacity=".5625"><path d="m49.091 249.502-64.535-113.063 226.126-132.038 64.535 113.063z" fill="#228ec5"/><g fill="#808080" fill-opacity=".75"><path d="m97.246 2.307-59.767 287.101-66.146-252.595 125.913-34.506z"/><path d="m-20.559 67.773 284.899 57.284-251.827 69.014-33.072-126.298z"/><path d="m163.392 254.902 59.768-287.102 66.146 252.595z"/></g></g></g><path d="m98.441 127.129 31.036 19.846 53.964-74.596" fill="none" stroke="#f7f7f6" stroke-width="3"/><path d="m125.356 53.13 18.023 55.468h58.322l-47.184 34.281 18.023 55.467-47.184-34.28-47.183 34.28 18.022-55.467-47.183-34.281h58.322z" fill="none" stroke="#f7f7f6" stroke-width="3"/><g clip-path="url(#c)"><path d="m93.713-14.11 195.311-218.754-69.013 251.827-126.298-33.073z" fill="#808080" fill-opacity=".75" opacity=".5625"/></g></svg>