<svg clip-rule="evenodd" fill-rule="evenodd" stroke-linecap="round" stroke-linejoin="round" stroke-miterlimit="1.41421" viewBox="0 0 252 252" xmlns="http://www.w3.org/2000/svg" xmlns:xlink="http://www.w3.org/1999/xlink"><clipPath id="a"><path clip-rule="evenodd" d="m17.564 333.966c34.495-59.747 111.007-80.248 170.753-45.754 59.747 34.495 80.248 111.007 45.753 170.754-34.494 59.746-111.006 80.247-170.753 45.753-59.746-34.495-80.248-111.007-45.753-170.753z"/></clipPath><clipPath id="b"><path clip-rule="evenodd" d="m188.317 17.485c-59.746-34.494-136.258-13.993-170.753 45.753-34.495 59.747-13.993 136.259 45.753 170.754 59.747 34.494 136.259 13.993 170.753-45.754 34.495-59.746 13.994-136.258-45.753-170.753z"/></clipPath><clipPath id="c"><path clip-rule="evenodd" d="m234.068-207.487c-34.494-59.746-111.006-80.248-170.753-45.753-59.746 34.495-80.248 111.007-45.753 170.753 34.495 59.747 111.007 80.248 170.753 45.753 59.747-34.494 80.248-111.006 45.753-170.753z"/></clipPath><clipPath id="d"><path clip-rule="evenodd" d="m441.77-270.715c68.99 0 125 56.01 125 125 0 68.989-56.01 125-125 125-68.989 0-125-56.011-125-125 0-68.99 56.011-125 125-125z"/></clipPath><clipPath id="e"><path clip-rule="evenodd" d="m621.445 265.926-456.891 173.928-190.611-500.718 456.891-173.927z"/></clipPath><path d="m-84-577h1111.84v1497.61h-1111.84z" fill="none"/><g clip-path="url(#a)"><path d="m88.445 275.516 195.311 218.753-69.014-251.826z" fill="#808080" fill-opacity=".75" opacity=".5625"/></g><circle cx="125.817" cy="125.738" fill="#2f2e2f" r="125"/><g clip-path="url(#b)"><g fill-opacity=".75" opacity=".5625"><path d="m49.552 249.502-64.535-113.063 226.126-132.038 64.535 113.063z" fill="#ff9100"/><g fill="#808080"><path d="m97.707 2.307-59.767 287.101-66.146-252.595 125.913-34.506z"/><path d="m-20.099 67.773 284.9 57.284-251.827 69.014z"/><path d="m163.853 254.902 59.768-287.102 66.146 252.595z"/></g></g></g><g fill="none" stroke="#f7f7f6" stroke-width="3"><path d="m62.873 55.738h125.889v85h-125.889z"/><path d="m112.817 108.738h100v75h-100z"/><path d="m38.817 95.738h50v85h-50z"/></g><g clip-path="url(#c)"><path d="m94.174-14.11 195.311-218.754-69.013 251.827-126.298-33.073z" fill="#808080" fill-opacity=".75" opacity=".5625"/></g><g clip-path="url(#d)"><path d="m621.445 265.926-456.891 173.928-190.611-500.718 456.891-173.927z" fill="none"/><g clip-path="url(#e)"><path d="m383.527-136.867c-1.24-9.428 1.632-25.099 9.692-45.616 12.494-31.804 36.901-48.028 36.901-48.028s6.126 28.219-6.368 60.023c-8.06 20.517-16.622 33.953-23.947 40.016l3.191 1.254c-16.048 56.16-55.434 157.289-76.649 211.8-58.459 148.811-142.604 363.006-160.415 356.009s66.334-221.191 124.794-370.002c21.472-54.388 62.726-154.834 89.193-206.873z" fill="none" stroke="#f7f7f6" stroke-width="3"/></g></g></svg>