<svg clip-rule="evenodd" fill-rule="evenodd" stroke-linejoin="round" stroke-miterlimit="1.41421" viewBox="0 0 252 252" xmlns="http://www.w3.org/2000/svg" xmlns:xlink="http://www.w3.org/1999/xlink"><clipPath id="a"><path clip-rule="evenodd" d="m63.317 19.178c59.747-34.495 136.259-13.994 170.753 45.753 34.495 59.746 13.994 136.258-45.753 170.753-59.746 34.495-136.258 13.993-170.753-45.753-34.495-59.747-13.993-136.259 45.753-170.753z"/></clipPath><clipPath id="b"><path clip-rule="evenodd" d="m17.564-207.034c34.495-59.747 111.007-80.248 170.753-45.754 59.747 34.495 80.248 111.007 45.753 170.754-34.494 59.746-111.006 80.247-170.753 45.753-59.746-34.495-80.248-111.007-45.753-170.753z"/></clipPath><path d="m-84-1118h1111.84v1497.61h-1111.84z" fill="none"/><circle cx="125.817" cy="126.189" fill="#2f2e2f" r="125"/><g clip-path="url(#a)"><g fill-opacity=".75" opacity=".5625"><path d="m202.082 251.194 64.535-113.063-226.126-132.038-64.535 113.063z" fill="#ff9100"/><g fill="#808080"><path d="m153.927 3.999 59.767 287.101 66.146-252.594-125.913-34.507z"/><path d="m271.733 69.465-284.9 57.284 251.827 69.014z"/><path d="m87.781 256.594-59.768-287.102-66.146 252.595z"/></g></g></g><g fill="none" stroke="#f7f7f6" stroke-width="3.5"><path d="m156.953 114.532v-22.448c0-17.184-13.951-31.136-31.136-31.136-17.184 0-31.136 13.952-31.136 31.136v22.345"/><path d="m174.426 122.517c0-4.281-3.475-7.756-7.756-7.756h-81.706c-4.281 0-7.756 3.475-7.756 7.756v61.157c0 4.28 3.475 7.756 7.756 7.756h81.706c4.281 0 7.756-3.476 7.756-7.756z"/><path d="m125.817 158.706v14.582" stroke-linecap="round"/><circle cx="125.817" cy="145.381" r="10.72" stroke-linecap="round"/></g><g clip-path="url(#b)"><path d="m157.458-13.658-195.311-218.753 69.014 251.826 126.297-33.073z" fill="#808080" fill-opacity=".75" opacity=".5625"/></g></svg>