<svg clip-rule="evenodd" fill-rule="evenodd" stroke-linecap="round" stroke-linejoin="round" stroke-miterlimit="1.41421" viewBox="0 0 252 252" xmlns="http://www.w3.org/2000/svg" xmlns:xlink="http://www.w3.org/1999/xlink"><clipPath id="a"><path clip-rule="evenodd" d="m188.856 288.485c-59.746-34.494-136.258-13.993-170.753 45.753-34.495 59.747-13.993 136.259 45.753 170.754 59.747 34.494 136.259 13.993 170.753-45.754 34.495-59.746 13.994-136.258-45.753-170.753z"/></clipPath><clipPath id="b"><path clip-rule="evenodd" d="m234.607 63.513c-34.494-59.746-111.006-80.248-170.753-45.753-59.746 34.495-80.248 111.007-45.753 170.753 34.495 59.747 111.007 80.248 170.753 45.753 59.747-34.494 80.248-111.006 45.753-170.753z"/></clipPath><clipPath id="c"><path clip-rule="evenodd" d="m63.856-252.965c59.747-34.495 136.259-13.993 170.753 45.753 34.495 59.747 13.994 136.259-45.753 170.753-59.746 34.495-136.258 13.994-170.753-45.753-34.495-59.746-13.993-136.258 45.753-170.753z"/></clipPath><path d="m-83.461-306h1111.84v1497.61h-1111.84z" fill="none"/><g clip-path="url(#a)"><path d="m164.392 525.902 59.768-287.102 66.146 252.595z" fill="#808080" fill-opacity=".75" opacity=".5625"/></g><circle cx="126.356" cy="126.013" fill="#2f2e2f" r="125"/><g clip-path="url(#b)"><g opacity=".5625"><path d="m-1.575 195.063.643-130.182 261.85-1.286-.643 130.183-261.85 1.285z" fill="#228ec5"/><g fill="#808080" fill-opacity=".75"><path d="m163.727 5.063-195.311 218.754 69.013-251.827 126.298 33.073z"/><path d="m28.97 2.856 218.089 192.059-252.595-66.146 34.506-125.913z"/><path d="m94.713 256.89 195.311-218.754-69.013 251.827z"/></g></g></g><path d="m189.3 153.549c-10.621 24.221-34.82 41.158-62.944 41.158-28.123 0-52.322-16.937-62.944-41.158" fill="none" stroke="#f7f7f6" stroke-width="3"/><circle cx="165.321" cy="95.661" fill="none" r="20" stroke="#f7f7f6" stroke-width="3"/><g clip-path="url(#c)"><path d="m154.466-268.144 59.767 287.102 66.146-252.595z" fill="#808080" fill-opacity=".75" opacity=".5625"/></g></svg>