<svg clip-rule="evenodd" fill-rule="evenodd" stroke-linecap="round" stroke-linejoin="round" stroke-miterlimit="1.41421" viewBox="0 0 252 252" xmlns="http://www.w3.org/2000/svg" xmlns:xlink="http://www.w3.org/1999/xlink"><clipPath id="a"><path clip-rule="evenodd" d="m234.068 334.513c-34.494-59.746-111.006-80.248-170.753-45.753-59.746 34.495-80.248 111.007-45.753 170.753 34.495 59.747 111.007 80.248 170.753 45.753 59.747-34.494 80.248-111.006 45.753-170.753z"/></clipPath><clipPath id="b"><path clip-rule="evenodd" d="m63.317 18.035c59.747-34.495 136.259-13.993 170.753 45.753 34.495 59.747 13.994 136.259-45.753 170.753-59.746 34.495-136.258 13.994-170.753-45.753-34.495-59.746-13.993-136.258 45.753-170.753z"/></clipPath><path d="m-84-35h1111.84v1497.61h-1111.84z" fill="none"/><g clip-path="url(#a)"><path d="m163.188 276.063-195.311 218.754 69.013-251.827z" fill="#808080" fill-opacity=".75" opacity=".5625"/></g><circle cx="125.817" cy="126.288" fill="#2f2e2f" r="125"/><g clip-path="url(#b)"><g fill-opacity=".75" opacity=".5625"><path d="m202.082 250.052 64.535-113.063-226.126-132.038-64.535 113.063z" fill="#ff9100"/><g fill="#808080"><path d="m153.927 2.856 59.767 287.102 66.146-252.595-125.913-34.507z"/><path d="m271.733 68.323-284.9 57.284 251.827 69.013z"/><path d="m87.781 255.451-59.768-287.101-66.146 252.594z"/></g></g></g><path d="m104.107 202.341-10.612 10.612c-1.03 1.03-2.924.807-4.227-.497l-42.962-42.962c-1.304-1.303-1.527-3.197-.497-4.227l10.612-10.612-2.033-2.034c-4.305-4.304-5.04-10.558-1.642-13.956l19.97-19.971c-3.113-3.478-4.645-8.159-3.585-12.067l10.062-37.114c1.475-5.442 7.42-7.338 13.267-4.231 5.847 3.106 9.396 10.046 7.921 15.488l-3.816 14.076 10.109-10.109c.323-.323.672-.609 1.042-.858.051-.076.104-.151.159-.226l30.817-41.958c2.585-3.519 8.189-3.638 12.507-.265s5.726 8.968 3.141 12.488l-35.091 45.221 4.115 4.115 44.971-49.553c2.889-3.238 8.495-2.829 12.512.913 4.018 3.742 4.934 9.408 2.046 12.645l-45.442 50.082 4.535 4.535 43.306-40.112c3.212-2.929 8.803-1.988 12.478 2.1 3.674 4.089 4.049 9.787.837 12.716l-42.521 39.396 4.024 4.024 33.001-26.647c3.154-2.381 8.161-1.122 11.174 2.81 3.014 3.932 2.899 9.058-.255 11.44l-29.685 22.411c-.285.216-.585.401-.898.558-.14.169-.289.333-.447.491l-53.927 53.928c-3.399 3.399-9.653 2.663-13.957-1.642z" fill="none" stroke="#f7f7f6" stroke-width="3"/></svg>