<svg clip-rule="evenodd" fill-rule="evenodd" stroke-linejoin="round" stroke-miterlimit="2" viewBox="0 0 252 252" xmlns="http://www.w3.org/2000/svg" xmlns:xlink="http://www.w3.org/1999/xlink"><clipPath id="a"><path clip-rule="evenodd" d="m234.521 63.571c-34.495-59.746-111.007-80.248-170.754-45.753-59.746 34.495-80.247 111.007-45.753 170.753 34.495 59.747 111.007 80.248 170.753 45.753 59.747-34.494 80.248-111.006 45.754-170.753z"/></clipPath><path d="m-61.922-595.219h1111.84v1497.61h-1111.84z" fill="none"/><circle cx="126.266" cy="126.069" fill="#2f2e2f" r="125"/><g clip-path="url(#a)"><g fill-opacity=".75" opacity=".5625"><path d="m-1.662 195.121.643-130.183 261.85-1.285-.643 130.183-261.85 1.285z" fill="#d8492d"/><g fill="#808080"><path d="m163.64 5.121-195.311 218.754 69.013-251.827z"/><path d="m28.883 2.914 218.089 192.059-252.595-66.146z"/><path d="m94.626 256.948 195.311-218.754-69.013 251.827z"/></g></g></g><circle cx="126.266" cy="126.069" fill="none" r="69.105" stroke="#f7f7f6" stroke-width="3"/><path d="m125.212 83.727.302.003.303.004.299.006.299.008.299.009.297.011.297.013.294.014.295.016.294.018.292.019.293.022.289.022.289.025.289.026.287.027.288.03.286.031.283.032.284.035.282.035.282.038.282.039.279.041.278.042.278.044.276.046.276.047.275.049.273.05.273.052.272.054.271.055.268.057.269.058.268.06.266.061.265.063.265.065.263.066.261.067.262.07.261.071.259.072.258.074.257.075.256.077.255.079.253.08.253.081.251.083.251.084.251.086.248.088.247.088.246.091.245.092.245.093.243.095.241.096.242.098.24.099.239.101.237.102.236.103.236.105.234.107.233.108.232.108.232.112.229.111.228.113.229.116.226.116.226.118.224.119.222.12.222.121.221.123.22.125.218.126.218.127.215.128.216.131.214.131.212.132.211.134.211.135.208.136.209.138.207.139.205.14.205.142.204.143.202.144.2.145.2.146.199.149.197.149.196.15.195.151.194.153.193.154.191.156.191.157.187.156.188.159.188.161.184.161.185.163.182.163.181.163.181.167.181.168.177.168.176.169.175.17.175.172.174.173.171.173.17.175.17.176.168.177.167.178.167.18.163.18.162.18.163.183.162.184.159.185.157.184.158.188.156.188.153.187.153.189.153.192.15.191.15.193.149.194.147.195.144.194.145.197.144.199.141.197.14.198.14.202.139.202.136.201.136.204.134.204.132.203.133.208.131.207.129.207.127.208.127.209.125.21.126.213.122.211.122.212.12.214.119.215.118.216.117.216.114.216.115.218.113.219.111.22.11.219.109.222.108.222.107.222.105.223.103.224.104.227.1.224.1.226.1.229.097.227.096.228.095.23.094.231.092.23.091.231.09.233.089.232.087.234.086.234.085.236.083.235.083.236.081.238.08.238.078.238.077.238.076.24.075.242.073.24.071.241.071.242.07.244.068.243.067.244.066.246.064.242.063.247.062.247.061.246.059.249.058.248.057.248.055.25.055.25.052.249.052.252.05.251.049.251.049.254.046.254.045.251.044.255.043.256.041.254.041.255.039.256.037.257.037.256.035.258.034.259.032.259.031.259.03.258.029.259.028.261.026.261.025.261.023.263.023.26.021.263.02.264.018.263.017.264.016.263.015.265.013.265.013.264.01.266.01.267.008.266.007.267.006.268.005.268.003.266.002.268v.269.269l-.002.269-.003.268-.005.267-.006.266-.007.267-.008.267-.01.267-.011.266-.012.265-.014.265-.014.265-.016.263-.018.264-.019.265-.02.262-.021.261-.022.263-.024.263-.025.262-.026.258-.028.261-.029.261-.03.259-.031.259-.033.259-.034.257-.036.258-.036.258-.038.256-.04.257-.04.255-.041.254-.044.256-.044.255-.045.251-.047.254-.049.254-.049.251-.05.251-.052.251-.054.251-.054.25-.056.249-.057.248-.058.248-.06.249-.061.247-.062.247-.064.245-.064.245-.067.245-.067.243-.068.244-.07.244-.071.241-.073.242-.073.24-.075.241-.077.24-.077.239-.079.238-.08.237-.081.238-.083.237-.084.236-.085.234-.086.234-.088.234-.089.233-.091.233-.091.232-.092.229-.095.231-.096.23-.096.227-.097.228-.1.228-.1.226-.102.227-.103.224-.104.224-.106.224-.107.222-.108.221-.109.223-.111.219-.111.219-.114.219-.114.218-.116.217-.117.216-.118.215-.119.214-.122.215-.122.213-.123.211-.124.212-.126.21-.128.21-.128.208-.129.207-.132.207-.131.205-.134.205-.135.205-.136.203-.136.201-.139.202-.14.201-.14.198-.142.198-.145.199-.144.196-.146.196-.148.195-.148.193-.149.191-.151.192-.153.191-.153.19-.155.188-.155.187-.158.187-.159.186-.16.185-.16.182-.162.183-.164.181-.164.18-.167.18-.167.178-.168.177-.169.175-.171.175-.173.174-.172.172-.175.172-.176.171-.177.168-.178.169-.18.167-.18.165-.182.165-.183.164-.184.162-.185.161-.187.16-.188.159-.19.158-.188.155-.193.156-.193.154-.194.153-.194.151-.196.15-.199.15-.198.148-.2.146-.2.145-.201.144-.205.144-.205.141-.205.14-.208.139-.206.137-.21.137-.211.135-.211.134-.212.132-.214.131-.215.13-.217.129-.216.127-.219.126-.22.124-.22.123-.222.122-.223.12-.223.119-.225.117-.228.117-.227.115-.228.113-.229.112-.231.11-.232.11-.234.108-.234.106-.234.105-.237.103-.238.103-.238.1-.238.099-.241.098-.243.097-.242.094-.245.094-.245.091-.244.09-.249.09-.248.087-.248.086-.25.084-.253.084-.252.081-.253.08-.256.078-.255.077-.255.075-.258.074-.26.073-.259.07-.26.069-.263.068-.263.066-.263.065-.264.063-.267.061-.267.06-.268.059-.269.056-.269.055-.271.054-.273.052-.272.051-.274.048-.275.048-.277.045-.276.044-.278.043-.279.04-.279.039-.282.038-.282.036-.282.034-.285.033-.284.031-.285.029-.288.028-.288.026-.288.024-.29.023-.29.021-.292.02-.293.017-.292.017-.295.014-.296.013-.296.011-.298.009-.298.008-.3.006-.3.004-.301.002-.305.001h-.134l-.137-.003-.137-.004-.123-.006-.262.013h-19.716l-.294-.014-.292-.043-.285-.072-.277-.099-.267-.126-.252-.151-.237-.176-.218-.197-.197-.219-.176-.236-.151-.253-.126-.266-.099-.277-.072-.286-.043-.291-.014-.294v-78.686l.014-.294.043-.291.072-.286.099-.277.126-.266.151-.252.176-.237.197-.218.218-.198.237-.175.252-.151.267-.126.277-.099.285-.072.292-.043.294-.015h19.716l.261.013.124-.005.137-.004.137-.003.131-.001.309.001zm-20.815 2.999v78.686h19.716v-.039l.099.009.098.008.099.007.1.005.099.005.1.003.101.002h.1l.285-.001.285-.002.283-.004.282-.006.281-.007.28-.009.279-.01.278-.012.277-.013.276-.016.274-.016.274-.019.273-.019.272-.022.271-.023.27-.024.268-.026.268-.027.267-.03.266-.03.264-.032.264-.034.263-.035.261-.036.261-.038.259-.04.259-.041.257-.043.257-.044.255-.045.254-.047.254-.049.252-.05.251-.051.251-.053.249-.054.248-.056.247-.057.246-.058.245-.06.244-.062.243-.062.242-.065.241-.065.239-.067.239-.069.238-.07.236-.071.236-.072.234-.074.234-.076.232-.076.232-.078.23-.08.229-.081.228-.082.228-.083.226-.085.225-.086.224-.088.223-.088.221-.09.221-.092.22-.093.219-.094.217-.095.217-.097.215-.097.215-.1.213-.1.212-.102.211-.103.21-.104.21-.106.208-.106.206-.109.206-.109.205-.11.204-.112.202-.113.202-.114.2-.116.2-.116.198-.118.197-.119.196-.121.195-.121.194-.123.193-.124.192-.125.191-.126.189-.127.189-.129.187-.13.187-.131.185-.132.184-.133.183-.134.182-.136.181-.136.18-.138.179-.139.178-.14.176-.141.176-.142.174-.144.173-.144.172-.146.171-.146.17-.148.169-.149.168-.149.167-.151.165-.152.165-.153.163-.154.162-.156.161-.156.16-.157.159-.158.158-.16.157-.16.155-.161.155-.163.153-.163.152-.165.152-.165.15-.166.148-.168.148-.168.147-.17.145-.17.145-.171.143-.173.142-.173.141-.174.14-.175.139-.176.138-.178.137-.178.135-.179.134-.179.134-.181.132-.182.131-.183.129-.183.129-.185.128-.185.126-.186.125-.187.124-.188.123-.189.122-.19.121-.191.12-.191.118-.193.118-.193.116-.194.115-.195.114-.196.112-.197.112-.197.111-.199.109-.199.108-.2.107-.2.106-.202.105-.202.103-.204.103-.204.101-.204.1-.206.099-.206.098-.207.097-.208.096-.209.094-.209.093-.211.092-.21.091-.212.09-.213.089-.213.087-.214.086-.214.085-.216.084-.216.083-.216.082-.218.08-.218.08-.219.078-.219.077-.221.076-.221.074-.221.074-.223.072-.223.071-.223.07-.225.069-.224.068-.226.066-.226.065-.227.064-.228.063-.228.062-.229.061-.229.059-.23.058-.231.057-.231.056-.232.055-.232.053-.233.052-.234.052-.234.049-.235.049-.235.048-.236.046-.236.045-.238.044-.237.043-.238.042-.239.04-.239.039-.24.038-.24.037-.241.036-.241.034-.242.033-.242.032-.243.031-.244.03-.243.028-.245.028-.245.026-.245.024-.246.024-.246.023-.247.021-.247.02-.247.019-.249.017-.248.017-.249.015-.249.014-.25.012-.251.012-.25.01-.251.009-.252.008-.252.007-.252.006-.253.004-.253.003-.253.002-.254v-.255-.254l-.002-.254-.003-.253-.004-.253-.006-.253-.006-.253-.008-.251-.009-.252-.011-.251-.011-.251-.013-.25-.014-.25-.015-.249-.016-.249-.018-.249-.018-.248-.02-.247-.021-.248-.022-.246-.024-.247-.025-.245-.025-.246-.028-.245-.028-.244-.029-.244-.031-.243-.032-.243-.033-.242-.034-.242-.035-.241-.037-.241-.038-.24-.039-.24-.04-.239-.041-.239-.043-.238-.044-.238-.044-.237-.047-.236-.047-.236-.048-.236-.05-.234-.051-.235-.052-.233-.053-.233-.054-.233-.056-.231-.057-.232-.057-.23-.06-.23-.06-.23-.061-.228-.063-.229-.064-.227-.065-.227-.066-.226-.067-.226-.068-.225-.07-.224-.071-.224-.072-.223-.073-.222-.074-.222-.076-.221-.076-.22-.078-.219-.079-.219-.08-.218-.081-.218-.083-.217-.083-.216-.085-.215-.086-.215-.087-.214-.088-.213-.09-.212-.09-.212-.092-.211-.093-.21-.094-.209-.095-.209-.097-.208-.097-.207-.099-.206-.099-.206-.101-.205-.102-.204-.104-.203-.104-.202-.106-.202-.106-.201-.108-.2-.109-.199-.11-.198-.112-.198-.112-.196-.113-.196-.115-.195-.116-.194-.117-.193-.118-.193-.119-.191-.121-.191-.121-.19-.123-.189-.124-.188-.125-.187-.126-.186-.127-.186-.128-.184-.13-.184-.13-.182-.132-.182-.133-.181-.134-.18-.135-.179-.136-.178-.138-.177-.138-.176-.14-.175-.141-.174-.141-.174-.143-.172-.145-.171-.145-.171-.146-.169-.148-.168-.148-.168-.15-.166-.151-.166-.152-.164-.153-.164-.154-.162-.156-.161-.156-.161-.158-.159-.158-.158-.16-.157-.161-.157-.162-.155-.163-.154-.164-.153-.166-.152-.166-.151-.168-.15-.168-.149-.17-.147-.171-.147-.172-.145-.173-.145-.174-.143-.176-.142-.176-.141-.177-.14-.179-.139-.18-.138-.181-.137-.181-.135-.183-.134-.185-.134-.185-.132-.186-.131-.187-.129-.189-.129-.19-.127-.19-.126-.192-.126-.193-.123-.194-.123-.195-.122-.196-.12-.197-.119-.199-.118-.199-.117-.2-.115-.202-.114-.203-.113-.203-.112-.205-.111-.206-.109-.207-.108-.208-.107-.209-.105-.211-.104-.211-.104-.212-.101-.214-.101-.214-.099-.216-.098-.217-.096-.218-.096-.218-.094-.22-.093-.221-.091-.222-.09-.224-.089-.224-.087-.225-.086-.227-.085-.227-.084-.228-.082-.23-.081-.231-.079-.231-.078-.233-.077-.234-.075-.235-.074-.236-.073-.237-.071-.238-.07-.239-.068-.24-.067-.242-.066-.242-.064-.243-.063-.245-.061-.245-.06-.247-.059-.248-.057-.248-.055-.25-.055-.251-.052-.252-.052-.253-.05-.253-.048-.255-.047-.257-.046-.257-.044-.258-.042-.259-.041-.26-.04-.262-.038-.262-.037-.263-.035-.265-.033-.265-.032-.267-.031-.267-.029-.269-.027-.269-.026-.271-.025-.272-.023-.273-.021-.273-.02-.275-.018-.276-.017-.277-.015-.278-.013-.279-.012-.28-.011-.281-.009-.282-.007-.283-.005-.284-.004-.285-.003-.287-.001-.1.001-.101.002-.1.003-.099.004-.1.006-.099.006-.098.008-.099.01v-.04h-19.716z" fill="#f7f7f6"/></svg>