<svg clip-rule="evenodd" fill-rule="evenodd" stroke-linecap="round" stroke-linejoin="round" stroke-miterlimit="1.41421" viewBox="0 0 252 252" xmlns="http://www.w3.org/2000/svg" xmlns:xlink="http://www.w3.org/1999/xlink"><clipPath id="a"><path clip-rule="evenodd" d="m234.041 63.707c-34.495-59.746-111.007-80.247-170.753-45.753-59.747 34.495-80.248 111.007-45.754 170.753 34.495 59.747 111.007 80.248 170.754 45.754 59.746-34.495 80.248-111.007 45.753-170.754z"/></clipPath><clipPath id="b"><circle clip-rule="evenodd" cx="125.786" cy="126.209" r="125"/></clipPath><path d="m-380.922-317h1111.84v1497.61h-1111.84z" fill="none"/><circle cx="125.786" cy="126.209" fill="#2d2d2d" r="125"/><g clip-path="url(#a)"><g fill-opacity=".75" opacity=".75"><path d="m-2.142 195.257.643-130.182 261.85-1.286-.643 130.183-261.85 1.285z" fill="#7676c3"/><g fill="#808080"><path d="m163.16 5.257-195.311 218.754 69.013-251.827z"/><path d="m28.404 3.05 218.088 192.059-252.595-66.146 34.507-125.913z"/><path d="m94.147 257.084 195.31-218.754-69.013 251.827z"/></g></g></g><g clip-path="url(#b)" fill="none" stroke="#f7f7f6" stroke-width="3"><path d="m-16.546 108.293v25.832h233.078v-25.832z"/><path d="m-16.546 164.206v25.831h102.618v-25.831z"/><path d="m-16.546 52.381v25.832h165.996v-25.832z"/></g></svg>