<svg clip-rule="evenodd" fill-rule="evenodd" stroke-linecap="round" stroke-linejoin="round" stroke-miterlimit="1.41421" viewBox="0 0 252 252" xmlns="http://www.w3.org/2000/svg" xmlns:xlink="http://www.w3.org/1999/xlink"><clipPath id="a"><path clip-rule="evenodd" d="m234.521 343.571c-34.495-59.746-111.007-80.248-170.754-45.753-59.746 34.495-80.247 111.007-45.753 170.753 34.495 59.747 111.007 80.248 170.753 45.753 59.747-34.494 80.248-111.006 45.754-170.753z"/></clipPath><clipPath id="b"><path clip-rule="evenodd" d="m37.853 37.681c48.783-48.783 127.994-48.783 176.776 0 48.783 48.783 48.783 127.994 0 176.777-48.782 48.783-127.993 48.783-176.776 0-48.783-48.783-48.783-127.994 0-176.777z"/></clipPath><path d="m-61.922-315.219h1111.84v1497.61h-1111.84z" fill="none"/><g clip-path="url(#a)"><path d="m163.64 285.121-195.311 218.754 69.013-251.827z" fill="#808080" fill-opacity=".75" opacity=".5625"/></g><circle cx="126.266" cy="126.069" fill="#2f2e2f" r="125"/><g clip-path="url(#b)"><g fill-opacity=".75" opacity=".5625"><path d="m231.94 225.877 33.073-125.913-252.595-69.014-33.073 125.914z" fill="#d8492d"/><g fill="#808080"><path d="m121.446-.432 132.039 261.85-1.485-261.108-130.554-.742z"/><path d="m252.182 32.313-260.365 129.07 261.107 1.484z"/><path d="m122.931 260.676-132.039-261.85 1.485 261.108z"/></g></g></g><g fill="none" stroke="#f7f7f6" stroke-width="3"><path d="m154.371 156.228 34.727 34.727"/><path d="m155.882 77.037c21.137 21.137 21.137 55.458 0 76.595s-55.459 21.137-76.596 0-21.137-55.458 0-76.595 55.459-21.137 76.596 0z"/><path d="m117.584 85.811 6.797 20.919h21.995l-17.795 12.928 6.797 20.918-17.794-12.928-17.794 12.928 6.797-20.918-17.795-12.928h21.995z"/></g></svg>