<svg clip-rule="evenodd" fill-rule="evenodd" stroke-linejoin="round" stroke-miterlimit="2" viewBox="0 0 252 252" xmlns="http://www.w3.org/2000/svg" xmlns:xlink="http://www.w3.org/1999/xlink"><clipPath id="a"><path clip-rule="evenodd" d="m62.906 17.035c59.747-34.495 136.259-13.993 170.754 45.753 34.494 59.747 13.993 136.259-45.754 170.753-59.746 34.495-136.258 13.994-170.753-45.753-34.495-59.746-13.993-136.258 45.753-170.753z"/></clipPath><clipPath id="b"><path clip-rule="evenodd" d="m233.618 332.787c-34.495-59.747-111.007-80.248-170.753-45.754-59.747 34.495-80.248 111.007-45.754 170.754 34.495 59.746 111.007 80.248 170.754 45.753 59.746-34.495 80.248-111.007 45.753-170.753z"/></clipPath><path d="m-400.461-36h1111.84v1497.61h-1111.84z" fill="none"/><circle cx="125.408" cy="125.288" fill="#2f2e2f" r="125"/><g clip-path="url(#a)"><g opacity=".5625"><path d="m201.671 249.052 64.535-113.063-226.126-132.038-64.535 113.063z" fill="#228ec5"/><g fill="#808080" fill-opacity=".75"><path d="m153.516 1.856 59.767 287.102 66.146-252.595-125.913-34.507z"/><path d="m271.322 67.323-284.9 57.284 251.827 69.013z"/><path d="m87.37 254.451-59.767-287.101-66.146 252.594z"/></g></g></g><circle cx="125.408" cy="125.288" fill="none" r="69.105" stroke="#f7f7f6" stroke-width="3"/><path d="m124.355 82.946.302.003.301.004.301.006.299.007.298.01.298.011.296.013.295.014.295.016.293.018.293.019.291.021.291.023.289.024.289.026.287.028.287.029.286.031.284.033.284.034.282.036.282.038.281.039.279.041.279.042.278.044.276.046.276.047.274.049.274.05.272.052.272.054.271.055.269.056.268.059.268.06.266.061.266.063.264.065.263.066.263.068.261.069.26.07.259.073.258.074.257.075.256.077.255.078.254.08.253.082.252.083.25.084.25.086.248.087.248.089.246.091.245.092.244.093.244.095.242.096.24.098.24.099.239.101.238.102.236.103.235.105.235.106.233.108.232.11.231.11.23.112.229.114.227.115.226.116.226.117.224.119.223.121.222.121.221.123.219.125.219.126.217.127.216.128.215.13.214.131.213.133.211.133.211.136.209.136.208.138.207.139.205.14.205.141.203.144.202.143.201.146.2.146.198.148.198.15.196.15.195.151.194.153.192.154.191.155.19.157.189.157.188.159.187.16.185.162.184.162.183.164.182.165.18.165.179.167.178.168.177.17.176.17.174.172.173.172.172.174.17.175.17.176.168.177.167.178.166.179.164.18.163.182.162.182.161.184.159.184.158.186.157.186.156.188.154.188.153.19.152.19.151.192.15.193.148.194.147.194.145.195.145.197.143.198.142.198.141.199.139.201.138.201.137.202.135.203.135.205.133.204.131.206.131.207.13.208.127.208.127.209.126.211.124.211.123.212.121.212.121.215.119.214.117.215.118.217.115.216.113.218.114.219.111.219.11.22.109.222.108.221.106.222.105.225.104.224.103.224.101.226.1.227.099.226.097.229.097.228.095.23.093.23.093.231.091.232.09.231.088.233.088.234.086.234.084.235.084.236.082.237.081.237.08.237.078.239.077.239.076.239.075.241.073.241.072.241.071.242.069.243.069.243.067.244.065.245.065.246.063.245.062.247.06.247.06.247.058.248.056.249.056.249.054.25.053.25.052.251.05.252.049.252.048.252.047.254.045.252.044.255.043.254.041.255.04.256.039.256.038.257.036.257.035.257.034.259.033.258.031.259.03.259.029.26.027.26.026.261.025.261.024.262.022.262.021.262.02.263.019.263.017.264.016.265.015.264.013.264.012.266.011.266.01.265.008.267.007.267.006.267.004.268.003.268.002.267.001.269-.001.269-.002.268-.003.268-.004.268-.006.267-.007.267-.009.267-.009.265-.011.266-.012.266-.014.265-.015.264-.016.264-.017.265-.019.263-.02.262-.021.263-.022.262-.024.262-.025.262-.027.259-.027.261-.029.26-.03.259-.032.26-.033.259-.034.257-.035.258-.037.257-.038.256-.039.257-.04.256-.042.254-.043.255-.044.255-.046.253-.047.253-.048.253-.049.251-.051.252-.052.252-.053.249-.055.25-.056.25-.056.248-.059.248-.059.248-.062.248-.062.246-.063.245-.065.245-.066.246-.067.244-.069.243-.07.243-.071.242-.072.241-.074.241-.075.241-.076.24-.077.238-.079.239-.08.238-.081.236-.083.237-.084.236-.085.235-.087.234-.087.233-.089.234-.091.233-.092.231-.092.23-.094.231-.096.229-.096.228-.098.228-.099.228-.101.227-.102.225-.102.224-.105.225-.105.224-.107.222-.108.221-.11.222-.11.22-.112.219-.113.219-.115.218-.115.217-.117.216-.118.215-.12.215-.121.213-.122.213-.123.212-.125.211-.126.211-.127.209-.128.208-.13.208-.131.207-.132.205-.133.205-.134.204-.137.204-.137.202-.138.201-.14.2-.141.199-.142.199-.144.197-.144.197-.147.195-.146.194-.149.194-.15.193-.151.192-.152.19-.154.189-.155.189-.155.187-.157.187-.159.186-.16.184-.161.183-.162.182-.163.182-.165.18-.166.179-.167.178-.168.177-.17.176-.171.175-.172.174-.173.172-.174.172-.177.171-.176.168-.178.168-.18.167-.18.166-.182.165-.183.163-.185.163-.185.161-.187.16-.188.159-.188.157-.191.157-.191.155-.193.154-.194.153-.195.151-.196.15-.197.149-.199.148-.2.147-.201.145-.202.144-.203.143-.205.141-.206.141-.206.139-.208.137-.209.137-.21.135-.212.133-.213.133-.213.131-.216.13-.216.128-.217.127-.218.126-.22.125-.22.123-.222.122-.223.12-.224.119-.225.117-.227.117-.227.114-.228.114-.23.112-.231.11-.232.11-.233.107-.234.107-.235.105-.237.103-.237.102-.238.101-.24.099-.24.098-.242.096-.243.095-.244.093-.245.092-.245.09-.248.089-.248.088-.249.086-.251.084-.251.083-.252.082-.254.08-.254.078-.256.077-.256.075-.258.074-.259.072-.259.071-.261.069-.262.068-.263.066-.264.065-.264.063-.266.061-.267.06-.268.058-.269.057-.27.055-.271.054-.272.052-.273.05-.274.049-.274.047-.277.046-.277.044-.277.042-.279.041-.28.039-.281.038-.282.036-.283.034-.284.033-.285.031-.285.029-.287.028-.288.026-.289.024-.289.023-.291.021-.291.019-.293.018-.294.016-.294.015-.295.012-.297.011-.297.01-.298.007-.3.006-.3.005-.301.002-.307.001-.132-.001-.138-.002-.137-.004-.123-.006-.261.013h-19.717l-.294-.014-.291-.044-.286-.071-.277-.099-.266-.126-.253-.152-.236-.175-.218-.198-.198-.218-.175-.236-.152-.253-.125-.266-.1-.277-.071-.286-.043-.291-.015-.294v-78.686l.015-.294.043-.291.071-.286.1-.277.125-.266.152-.253.175-.236.198-.218.218-.198.236-.175.253-.152.266-.125.277-.1.286-.071.291-.043.294-.015h19.717l.261.013.123-.005.138-.005.137-.002.132-.001.308.001zm-20.816 2.999v78.686h19.717v-.039l.098.009.099.008.099.007.099.005.1.005.1.003.1.001.101.001.285-.001.284-.002.283-.004.282-.006.281-.007.28-.009.279-.01.278-.012.277-.014.276-.015.275-.017.274-.018.273-.02.272-.021.271-.023.269-.024.269-.026.268-.028.267-.029.265-.03.265-.032.264-.034.262-.035.262-.037.26-.038.26-.039.258-.041.258-.043.256-.044.256-.045.254-.047.253-.049.253-.05.251-.051.25-.053.249-.054.248-.056.248-.057.246-.058.245-.06.244-.062.242-.063.242-.064.241-.065.24-.068.239-.068.237-.07.237-.071.236-.073.234-.073.234-.076.232-.077.231-.078.231-.079.229-.081.228-.082.227-.083.226-.085.225-.086.224-.088.223-.089.222-.09.221-.091.22-.093.218-.094.218-.095.216-.097.216-.098.214-.099.214-.1.212-.102.211-.103.21-.104.209-.106.208-.107.207-.108.206-.109.205-.111.203-.111.203-.113.201-.115.201-.115.199-.117.199-.118.197-.119.196-.12.195-.121.194-.123.193-.124.192-.125.19-.126.19-.128.189-.128.187-.13.186-.131.186-.132.184-.133.183-.134.182-.136.181-.137.18-.137.179-.139.177-.14.177-.141.175-.142.175-.144.173-.144.172-.146.171-.146.17-.148.169-.149.168-.15.166-.151.166-.152.164-.153.164-.154.162-.155.161-.156.16-.157.159-.159.158-.159.156-.16.156-.162.154-.162.154-.163.152-.165.151-.165.15-.167.149-.167.148-.168.147-.17.145-.17.145-.172.143-.172.142-.173.141-.174.14-.176.139-.176.138-.177.136-.178.136-.179.134-.18.133-.18.132-.182.131-.183.13-.183.129-.185.127-.185.127-.186.125-.188.124-.188.123-.189.122-.189.121-.191.119-.192.119-.192.117-.193.116-.194.115-.195.114-.196.113-.197.112-.197.11-.199.11-.199.108-.2.107-.201.106-.201.105-.203.103-.203.103-.204.101-.205.1-.205.099-.206.098-.208.097-.207.095-.209.095-.21.093-.21.092-.211.091-.211.09-.213.088-.213.088-.214.086-.214.085-.216.084-.216.083-.217.082-.217.08-.218.079-.219.078-.22.077-.22.076-.221.075-.222.073-.222.073-.223.071-.223.07-.225.069-.225.067-.225.067-.227.065-.226.064-.228.063-.228.062-.229.06-.229.06-.23.058-.231.057-.231.056-.232.054-.232.054-.233.052-.234.051-.234.05-.235.049-.235.047-.236.047-.237.045-.237.044-.237.043-.238.041-.239.041-.239.039-.24.038-.24.037-.241.035-.241.035-.242.033-.243.032-.242.031-.244.03-.244.028-.244.027-.245.026-.245.025-.246.024-.246.022-.247.021-.247.02-.248.019-.248.018-.248.016-.249.015-.25.014-.25.013-.25.012-.25.01-.252.009-.251.008-.252.007-.252.005-.253.004-.253.004-.254.001-.254.001-.254-.001-.254-.001-.254-.003-.254-.005-.253-.005-.252-.007-.253-.008-.252-.009-.251-.01-.251-.011-.251-.013-.25-.014-.25-.015-.249-.016-.249-.018-.249-.019-.248-.019-.248-.022-.247-.022-.247-.023-.246-.025-.246-.026-.245-.027-.245-.028-.244-.03-.244-.03-.243-.032-.243-.033-.242-.034-.242-.036-.242-.036-.24-.038-.241-.039-.239-.04-.24-.042-.238-.042-.238-.044-.238-.045-.237-.046-.237-.047-.235-.049-.236-.049-.235-.051-.234-.052-.233-.053-.233-.055-.233-.055-.232-.057-.231-.058-.23-.059-.23-.06-.23-.062-.229-.062-.228-.064-.227-.065-.227-.066-.226-.067-.226-.069-.225-.069-.224-.071-.224-.072-.223-.073-.222-.075-.222-.075-.221-.077-.22-.077-.22-.079-.219-.081-.218-.081-.217-.082-.217-.084-.216-.085-.215-.086-.215-.087-.214-.088-.213-.089-.212-.091-.212-.092-.211-.092-.21-.094-.21-.096-.208-.096-.208-.097-.207-.099-.207-.1-.205-.101-.205-.102-.204-.103-.203-.104-.203-.106-.201-.107-.201-.108-.2-.108-.199-.111-.198-.111-.198-.112-.196-.114-.196-.115-.195-.115-.194-.117-.194-.118-.192-.12-.192-.12-.19-.122-.19-.122-.189-.124-.188-.125-.187-.126-.187-.127-.185-.129-.184-.129-.184-.131-.183-.131-.181-.133-.181-.134-.18-.135-.179-.137-.178-.137-.177-.139-.176-.139-.175-.141-.175-.142-.173-.143-.172-.144-.172-.145-.17-.147-.169-.147-.169-.149-.167-.149-.166-.151-.166-.152-.164-.153-.164-.155-.162-.155-.161-.156-.161-.158-.159-.159-.158-.159-.158-.161-.156-.162-.155-.163-.154-.165-.153-.165-.152-.166-.151-.168-.15-.169-.149-.169-.147-.171-.147-.172-.146-.173-.144-.175-.143-.175-.142-.176-.142-.178-.14-.178-.138-.18-.138-.181-.137-.182-.135-.183-.135-.184-.133-.185-.132-.186-.131-.188-.129-.188-.129-.19-.127-.191-.127-.191-.125-.193-.124-.194-.122-.195-.122-.196-.12-.198-.119-.198-.118-.199-.117-.201-.115-.201-.114-.203-.113-.204-.112-.205-.111-.206-.109-.207-.108-.208-.107-.209-.105-.21-.105-.211-.103-.213-.101-.213-.101-.215-.099-.215-.098-.217-.097-.218-.095-.219-.094-.22-.093-.221-.091-.222-.09-.223-.089-.224-.087-.226-.087-.226-.084-.227-.084-.229-.082-.229-.081-.231-.079-.232-.078-.233-.077-.233-.075-.235-.074-.236-.073-.237-.071-.238-.07-.24-.068-.24-.067-.241-.066-.242-.064-.244-.063-.244-.061-.246-.06-.246-.059-.248-.057-.249-.056-.249-.054-.251-.053-.252-.051-.253-.05-.254-.048-.255-.047-.256-.046-.257-.044-.258-.042-.259-.041-.261-.04-.261-.038-.262-.037-.264-.035-.264-.033-.265-.032-.267-.031-.268-.029-.268-.028-.27-.026-.27-.024-.272-.023-.273-.021-.274-.02-.275-.018-.275-.017-.277-.015-.278-.014-.279-.012-.28-.01-.281-.009-.282-.007-.284-.006-.284-.004-.285-.002-.286-.001-.101.001-.1.002-.1.003-.1.004-.099.006-.099.006-.099.008-.098.009v-.039z" fill="#f7f7f6"/><g clip-path="url(#b)"><path d="m162.737 274.337-195.311 218.753 69.013-251.826z" fill="#808080" fill-opacity=".75" opacity=".75"/></g></svg>