<svg clip-rule="evenodd" fill-rule="evenodd" stroke-linejoin="round" stroke-miterlimit="2" viewBox="0 0 252 252" xmlns="http://www.w3.org/2000/svg" xmlns:xlink="http://www.w3.org/1999/xlink"><clipPath id="a"><path clip-rule="evenodd" d="m63.858 287.934c59.747-34.495 136.258-13.994 170.753 45.753s13.994 136.258-45.753 170.753-136.258 13.994-170.753-45.753c-34.495-59.747-13.994-136.259 45.753-170.753z"/></clipPath><clipPath id="b"><path clip-rule="evenodd" d="m18.105 62.966c34.495-59.747 111.006-80.248 170.753-45.754 59.747 34.495 80.248 111.007 45.753 170.754-34.495 59.746-111.006 80.247-170.753 45.753-59.747-34.495-80.248-111.007-45.753-170.753z"/></clipPath><clipPath id="c"><path clip-rule="evenodd" d="m188.856-253.515c-59.746-34.494-136.258-13.993-170.753 45.753-34.495 59.747-13.993 136.259 45.753 170.754 59.747 34.494 136.259 13.993 170.753-45.754 34.495-59.746 13.994-136.258-45.753-170.753z"/></clipPath><path d="m-83.461-848h1111.84v1497.61h-1111.84z" fill="none"/><g clip-path="url(#a)"><path d="m88.322 525.35-59.768-287.102-66.146 252.595z" fill="#808080" fill-opacity=".75" opacity=".5625"/></g><circle cx="126.356" cy="125.464" fill="#2f2e2f" r="125" stroke="#196f99"/><g clip-path="url(#b)"><g opacity=".5625"><path d="m254.287 194.516-.642-130.183-261.85-1.286.642 130.183z" fill="#228ec5"/><g fill="#808080" fill-opacity=".75"><path d="m88.986 4.516 195.311 218.753-69.014-251.826-126.297 33.073z"/><path d="m223.742 2.308-218.088 192.059 252.595-66.145-34.507-125.914z"/><path d="m157.999 256.342-195.311-218.753 69.014 251.826z"/></g></g></g><g fill="none" stroke="#f7f7f6" stroke-linecap="round" stroke-miterlimit="1.41421" stroke-width="3"><path d="m140.119 50.079c-9.102-1.636-18.424-1.636-27.526 0l-1.631 12.26c-6.78 1.623-13.26 4.307-19.201 7.953l-9.823-7.516c-7.593 5.28-14.184 11.871-19.464 19.464l7.516 9.823c-3.646 5.941-6.33 12.421-7.953 19.201l-12.26 1.631c-1.636 9.103-1.636 18.424 0 27.526l12.26 1.632c1.623 6.779 4.307 13.259 7.953 19.2l-7.516 9.823c5.28 7.593 11.871 14.185 19.464 19.464l9.823-7.516c5.941 3.646 12.421 6.331 19.201 7.953l1.631 12.261c9.102 1.636 18.424 1.636 27.526 0l1.632-12.261c6.779-1.622 13.259-4.307 19.2-7.953l9.823 7.516c7.593-5.279 14.185-11.871 19.464-19.464l-7.516-9.823c3.646-5.941 6.331-12.421 7.953-19.2l12.261-1.632c1.636-9.102 1.636-18.423 0-27.526l-12.261-1.631c-1.622-6.78-4.307-13.26-7.953-19.201l7.516-9.823c-5.279-7.593-11.871-14.184-19.464-19.464l-9.823 7.516c-5.941-3.646-12.421-6.33-19.2-7.953z"/><path d="m126.356 126.039s-19.094-2.359-19.094-14.019c0-7.737 8.556-14.018 19.094-14.018 10.539 0 19.095 6.281 19.095 14.018"/><path d="m126.356 126.039s19.847 2.227 19.847 14.638c0 8.079-8.893 14.638-19.847 14.638s-19.847-6.559-19.847-14.638"/><path d="m126.356 98.002v-15.256"/><path d="m126.356 170.57v-15.255"/></g><g clip-path="url(#c)"><path d="m98.246-268.693-59.767 287.101-66.146-252.595z" fill="#808080" fill-opacity=".75" opacity=".5625"/></g></svg>