<svg clip-rule="evenodd" fill-rule="evenodd" stroke-linecap="round" stroke-linejoin="round" stroke-miterlimit="1.41421" viewBox="0 0 252 252" xmlns="http://www.w3.org/2000/svg" xmlns:xlink="http://www.w3.org/1999/xlink"><clipPath id="a"><path clip-rule="evenodd" d="m63.317 290.178c59.747-34.495 136.259-13.994 170.753 45.753 34.495 59.746 13.994 136.258-45.753 170.753-59.746 34.495-136.258 13.993-170.753-45.753-34.495-59.747-13.993-136.259 45.753-170.753z"/></clipPath><clipPath id="b"><path clip-rule="evenodd" d="m17.564 63.966c34.495-59.747 111.007-80.248 170.753-45.754 59.747 34.495 80.248 111.007 45.753 170.754-34.494 59.746-111.006 80.247-170.753 45.753-59.746-34.495-80.248-111.007-45.753-170.753z"/></clipPath><clipPath id="c"><path clip-rule="evenodd" d="m188.317-252.515c-59.746-34.494-136.258-13.993-170.753 45.753-34.495 59.747-13.993 136.259 45.753 170.754 59.747 34.494 136.259 13.993 170.753-45.754 34.495-59.746 13.994-136.258-45.753-170.753z"/></clipPath><clipPath id="d"><path clip-rule="evenodd" d="m441.77-540.715c68.99 0 125 56.01 125 125 0 68.989-56.01 125-125 125-68.989 0-125-56.011-125-125 0-68.99 56.011-125 125-125z"/></clipPath><clipPath id="e"><path clip-rule="evenodd" d="m621.445-4.074-456.891 173.928-190.611-500.718 456.891-173.927 190.611 500.717z"/></clipPath><path d="m-84-847h1111.84v1497.61h-1111.84z" fill="none"/><g clip-path="url(#a)"><path d="m87.781 527.594-59.768-287.102-66.146 252.595z" fill="#808080" fill-opacity=".75" opacity=".5625"/></g><circle cx="125.817" cy="126.464" fill="#2f2e2f" r="125"/><g clip-path="url(#b)"><g fill-opacity=".75" opacity=".5625"><path d="m253.746 195.516-.642-130.183-261.85-1.286.642 130.183z" fill="#ff9100"/><g fill="#808080"><path d="m88.445 5.516 195.311 218.753-69.014-251.826-126.297 33.073z"/><path d="m223.201 3.308-218.088 192.059 252.595-66.145-34.507-125.914z"/><path d="m157.458 257.342-195.311-218.753 69.014 251.826z"/></g></g></g><g fill="none" stroke="#f7f7f6" stroke-width="3"><path d="m125.599 24.873v195.305"/><path d="m125.817 113.451-53.717 53.717 53.717 53.717 53.717-53.717z"/><path d="m125.817 66.747-53.717 53.717 53.717 53.717 53.717-53.717z"/><path d="m72.1 73.752v93.423"/><path d="m179.534 73.752v93.423"/></g><g clip-path="url(#c)"><path d="m97.707-267.693-59.767 287.101-66.146-252.595z" fill="#808080" fill-opacity=".75" opacity=".5625"/></g><g clip-path="url(#d)"><path d="m621.445-4.074-456.891 173.928-190.611-500.718 456.891-173.927 190.611 500.717z" fill="none"/><g clip-path="url(#e)"><path d="m383.527-406.867c-1.24-9.428 1.632-25.099 9.692-45.616 12.494-31.804 36.901-48.028 36.901-48.028s6.126 28.219-6.368 60.023c-8.06 20.517-16.622 33.953-23.947 40.016l3.191 1.254c-16.048 56.16-55.434 157.289-76.649 211.8-58.459 148.811-142.604 363.006-160.415 356.009s66.334-221.191 124.794-370.002c21.472-54.388 62.726-154.834 89.193-206.873z" fill="none" stroke="#f7f7f6" stroke-width="3"/></g></g></svg>