<svg clip-rule="evenodd" fill-rule="evenodd" stroke-linecap="round" stroke-linejoin="round" stroke-miterlimit="1.41421" viewBox="0 0 252 252" xmlns="http://www.w3.org/2000/svg" xmlns:xlink="http://www.w3.org/1999/xlink"><clipPath id="a"><path clip-rule="evenodd" d="m63.858 17.934c59.747-34.495 136.258-13.994 170.753 45.753s13.994 136.258-45.753 170.753-136.258 13.994-170.753-45.753c-34.495-59.747-13.994-136.259 45.753-170.753z"/></clipPath><clipPath id="b"><path clip-rule="evenodd" d="m18.105-207.034c34.495-59.747 111.006-80.248 170.753-45.754 59.747 34.495 80.248 111.007 45.753 170.754-34.495 59.746-111.006 80.247-170.753 45.753-59.747-34.495-80.248-111.007-45.753-170.753z"/></clipPath><path d="m-83.461-1118h1111.84v1497.61h-1111.84z" fill="none"/><circle cx="126.356" cy="126.189" fill="#2f2e2f" r="125"/><g clip-path="url(#a)"><g opacity=".5625"><path d="m202.623 249.951 64.535-113.063-226.126-132.039-64.535 113.063z" fill="#228ec5"/><g fill="#808080" fill-opacity=".75"><path d="m154.468 2.755 59.767 287.102 66.146-252.595-125.913-34.507z"/><path d="m272.274 68.222-284.9 57.284 251.827 69.013z"/><path d="m88.322 255.35-59.768-287.102-66.146 252.595z"/></g></g></g><g fill="none" stroke="#f7f7f6" stroke-width="3"><path d="m151.51 63.835c24.624 9.964 42.014 34.113 42.014 62.292 0 28.178-17.39 52.327-42.014 62.291"/><path d="m177.459 195.432-25.692-6.613 6.612-25.693"/><path d="m101.202 188.542c-24.624-9.964-42.014-34.113-42.014-62.291 0-28.179 17.39-52.328 42.014-62.292"/><path d="m75.253 56.946 25.693 6.613-6.613 25.692"/><path d="m107.507 111.708 8.496 33.837 10.32-33.837 9.993 33.837 8.633-33.837"/></g><g clip-path="url(#b)"><path d="m157.999-13.658-195.311-218.753 69.014 251.826 126.297-33.073z" fill="#808080" fill-opacity=".75" opacity=".5625"/></g></svg>