<svg clip-rule="evenodd" fill-rule="evenodd" stroke-linecap="round" stroke-linejoin="round" stroke-miterlimit="1.41421" viewBox="0 0 252 252" xmlns="http://www.w3.org/2000/svg" xmlns:xlink="http://www.w3.org/1999/xlink"><clipPath id="a"><path clip-rule="evenodd" d="m63.906-251.965c59.747-34.495 136.259-13.993 170.754 45.753 34.494 59.747 13.993 136.259-45.754 170.753-59.746 34.495-136.258 13.994-170.753-45.753-34.495-59.746-13.993-136.258 45.753-170.753z"/></clipPath><clipPath id="b"><path clip-rule="evenodd" d="m234.618 63.787c-34.495-59.747-111.007-80.248-170.753-45.754-59.747 34.495-80.248 111.007-45.754 170.754 34.495 59.746 111.007 80.248 170.754 45.753 59.746-34.495 80.248-111.007 45.753-170.753z"/></clipPath><path d="m-399.461-305h1111.84v1497.61h-1111.84z" fill="none"/><g clip-path="url(#a)"><path d="m154.516-267.144 59.767 287.102 66.146-252.595z" fill="#808080" fill-opacity=".75" opacity=".5625"/></g><circle cx="126.309" cy="126.285" fill="#2d2d2d" r="125"/><g clip-path="url(#b)"><g fill-opacity=".75" opacity=".75"><path d="m-1.565 195.337.643-130.183 261.85-1.286-.643 130.183-261.85 1.286z" fill="#228ec5"/><g fill="#808080"><path d="m163.737 5.337-195.311 218.753 69.013-251.826 126.298 33.073z"/><path d="m28.981 3.129 218.088 192.06-252.595-66.146 34.507-125.914z"/><path d="m94.724 257.163 195.31-218.753-69.013 251.826z"/></g></g></g><path d="m195.185 62.844.374.049.366.096.35.141.33.184.143.092.152.099.152.101.15.102.151.103.148.104.148.105.148.107.146.107.146.109.145.11.143.11.143.112.143.113.141.114.14.115.139.116.139.117.137.118.136.119.136.12.135.122.134.122.133.124.132.124.131.125.129.126.129.127.128.128.128.13.125.13.125.131.125.133.122.133.122.133.121.135.121.137.118.136.118.138.117.139.115.139.115.14.114.142.113.142.112.145.11.144.109.143.108.146.108.147.106.148.104.148.105.15.102.149.101.15.101.153.1.153.098.153.097.154.096.155.094.155.094.157.092.158.092.158.09.159.088.159.088.161.087.162.085.162.083.161.083.164.082.166.08.164.079.165.077.166.077.167.076.169.073.167.073.17.072.17.069.169.069.172.068.174.066.172.065.172.063.173.063.176.061.175.059.174.058.177.057.178.055.176.055.179.053.179.051.179.05.181.048.179.048.181.045.183.045.18.043.183.041.184.04.184.039.184.037.185.036.185.035.187.032.186.031.185.03.188.029.189.027.188.025.187.024.188.023.191.021.191.019.189.018.191.016.192.015.19.013.192.012.195.01.192.009.192.007.193.006.194.004.194.002.196.001.197-.002.246-.003.248-.007.247-.009.247-.011.247-.014.246-.017.245-.019.245-.022.243-.024.244-.026.243-.029.241-.032.241-.033.24-.037.241-.039.238-.041.237-.043.238-.046.237-.049.236-.05.234-.053.233-.055.233-.058.233-.06.232-.061.229-.065.231-.067.227-.068.227-.072.228-.073.225-.075.223-.078.225-.08.224-.082.22-.084.22-.087.22-.088.217-.091.218-.092.215-.095.215-.097.215-.099.212-.1.211-.103.211-.105.209-.108.208-.108.206-.111.205-.113.205-.115.203-.116.201-.119.201-.121.199-.122.198-.125.196-.127.196-.127.193-.13.192-.131.191-.135.191-.135.188-.137.187-.139.185-.141.184-.142.183-.145.181-.146.18-.148.178-.149.177-.151.175-.153.174-.154.171-.157.172-.158.169-.159.167-.161.166-.163.165-.164.162-.165.162-.169.16-.168.157-.17.157-.173.154-.173.153-.175.152-.177.15-.178.147-.18.146-.181.145-.182.142-.184.141-.186.14-.187.137-.188.136-.189.133-.191.132-.192.13-.194.129-.196.127-.196.124-.197.122-.199.121-.2.119-.201.117-.204.115-.204.113-.205.111-.207.109-.207.108-.21.105-.209.103-.212.101-.212.099-.214.097-.214.095-.216.093-.217.09-.086.035v94.869l-.026.392-.077.385-.126.371-.173.352-.218.327-.259.295-.295.258-.326.218-.352.174-.372.126-.385.077-.391.025h-12.287l-.391-.025-.385-.077-.372-.126-.352-.174-.326-.218-.295-.258-.259-.295-.218-.327-.174-.352-.126-.371-.076-.385-.026-.392v-95.1l-.091-.04-.21-.094-.208-.096-.207-.098-.206-.1-.205-.101-.204-.104-.203-.105-.202-.108-.2-.11-.199-.111-.198-.113-.197-.115-.195-.117-.195-.118-.193-.121-.192-.123-.19-.123-.189-.126-.188-.128-.187-.129-.185-.131-.185-.133-.182-.135-.181-.135-.18-.139-.179-.139-.177-.141-.176-.144-.174-.144-.172-.146-.172-.148-.171-.15-.168-.151-.167-.152-.166-.155-.164-.155-.162-.157-.161-.159-.16-.161-.158-.162-.157-.164-.155-.165-.153-.166-.152-.168-.15-.169-.148-.171-.147-.172-.146-.174-.143-.175-.142-.176-.141-.178-.138-.18-.138-.181-.135-.182-.133-.183-.132-.184-.13-.186-.129-.188-.127-.189-.125-.19-.122-.19-.121-.193-.12-.195-.118-.194-.115-.196-.115-.198-.112-.199-.11-.199-.108-.202-.107-.202-.104-.202-.103-.206-.101-.205-.098-.207-.098-.209-.094-.208-.093-.211-.091-.211-.089-.211-.087-.214-.084-.214-.083-.216-.081-.216-.078-.217-.077-.219-.075-.219-.072-.221-.071-.221-.068-.222-.066-.223-.064-.224-.061-.225-.06-.227-.057-.226-.055-.227-.053-.228-.051-.23-.048-.23-.047-.23-.044-.233-.041-.233-.04-.231-.037-.234-.035-.236-.032-.235-.03-.235-.028-.237-.026-.238-.023-.239-.02-.239-.018-.239-.016-.238-.014-.241-.011-.242-.009-.243-.006-.241-.003-.242-.002-.242.001-.196.003-.196.004-.194.005-.192.007-.195.009-.193.01-.191.012-.195.013-.192.015-.19.016-.192.018-.191.02-.189.021-.191.022-.189.024-.188.026-.191.027-.188.028-.187.03-.188.031-.185.033-.186.034-.187.036-.185.037-.185.039-.184.04-.184.042-.184.043-.183.044-.18.046-.183.047-.181.048-.179.051-.181.051-.179.053-.179.054-.179.055-.176.057-.178.058-.175.059-.176.062-.176.062-.175.064-.173.064-.172.066-.172.068-.174.069-.172.07-.169.071-.17.073-.17.074-.167.075-.169.076-.166.078-.165.08-.169.08-.164.081-.164.083-.164.083-.161.085-.162.087-.162.088-.161.089-.159.09-.159.091-.158.092-.158.094-.157.094-.155.096-.155.098-.154.097-.153.1-.153.101-.153.101-.15.102-.149.105-.15.105-.148.106-.148.107-.146.108-.147.11-.145.109-.142.113-.145.112-.142.114-.142.115-.14.115-.139.117-.139.118-.138.119-.136.12-.137.121-.135.122-.133.123-.133.124-.133.125-.131.126-.13.127-.13.128-.128.129-.127.13-.126.131-.125.132-.124.132-.124.134-.122.135-.122.136-.12.136-.119.137-.117.139-.118.141-.117.138-.114.142-.114.142-.113.143-.112.144-.11.144-.11.146-.109.147-.107.147-.107.148-.105.149-.104.15-.103.151-.102.151-.101.152-.099.143-.092.33-.184.35-.141.366-.096.375-.049.377-.002.375.046.367.092.352.138.331.181.307.221.276.258.241.291.203.319.161.341.117.36.071.371.024.377v17.175h16.03v-17.175l.024-.377.071-.371.117-.36.161-.341.203-.319.242-.291.276-.258.306-.221.332-.181.352-.138.366-.092.375-.046.378.002zm-22.366 3.079-.133.087-.133.088-.131.089-.131.09-.13.09-.129.092-.129.093-.128.094-.127.095-.126.096-.126.096-.125.098-.124.098-.123.1-.122.1-.122.102-.121.102-.12.103-.119.104-.119.105-.117.106-.117.107-.116.108-.115.108-.115.109-.113.111-.113.111-.111.112-.111.113-.11.113-.11.115-.108.115-.107.117-.107.117-.106.117-.104.119-.104.12-.103.12-.102.121-.101.122-.1.123-.1.123-.098.124-.097.125-.097.126-.095.126-.095.128-.093.128-.093.129-.092.129-.09.13-.09.131-.089.132-.087.133-.087.133-.086.133-.084.135-.084.135-.083.136-.081.137-.081.137-.079.138-.079.139-.077.139-.077.14-.075.141-.074.141-.074.142-.072.143-.071.143-.07.144-.069.144-.068.145-.066.146-.066.146-.064.147-.064.147-.062.148-.061.149-.06.149-.059.15-.058.151-.056.15-.055.152-.055.152-.053.153-.052.153-.05.153-.05.155-.048.154-.047.156-.046.155-.045.157-.044.156-.042.158-.041.158-.04.158-.039.159-.037.159-.036.159-.035.161-.034.16-.033.161-.031.162-.03.162-.028.162-.028.163-.026.163-.025.164-.023.164-.022.165-.021.165-.02.165-.018.166-.017.166-.016.166-.014.167-.013.168-.011.167-.011.168-.009.169-.007.168-.006.169-.005.17-.004.17-.002.17v.17l.001.213.003.212.005.212.008.211.009.211.012.21.014.209.016.209.018.209.02.208.022.207.025.206.026.206.028.206.031.204.032.204.034.204.037.202.038.202.04.201.042.201.045.2.046.199.048.198.05.198.052.197.053.196.056.195.058.194.059.194.061.193.064.192.064.191.067.191.069.189.07.189.072.187.074.187.076.186.078.185.079.184.081.184.083.182.084.181.086.18.088.18.089.178.092.178.093.176.094.175.096.175.098.173.099.172.102.172.102.17.104.169.106.168.108.167.109.165.11.165.112.164.114.162.115.161.117.16.118.159.119.158.121.157.123.155.124.154.125.153.127.152.129.15.129.149.131.148.133.147.134.145.135.144.137.143.138.141.139.14.141.139.142.138.143.136.145.134.146.134.147.132.149.13.149.129.151.128.153.126.153.125.155.123.156.122.157.121.158.119.159.117.161.116.162.114.163.113.164.112.165.11.166.108.168.107.168.105.17.103.17.102.172.1.173.099.173.097.175.096.176.093.177.093.178.09.179.089.179.087.181.085.182.084.183.082.183.08.185.079.185.076.187.075.187.073.188.072.189.069.19.068.191.066.191.064v97.161h12.287v-96.989l.198-.06.197-.062.197-.064.195-.066.195-.068.194-.07.193-.072.192-.073.191-.076.19-.077.189-.079.188-.081.188-.083.186-.085.185-.086.184-.088.184-.09.182-.092.181-.093.18-.095.179-.097.178-.099.177-.1.176-.102.175-.104.173-.105.173-.107.171-.109.17-.11.17-.112.167-.114.167-.115.166-.117.164-.118.163-.12.162-.122.16-.123.16-.124.158-.127.156-.127.156-.129.154-.131.153-.132.152-.134.15-.135.149-.136.148-.138.146-.14.145-.14.143-.143.142-.143.141-.145.139-.147.138-.147.136-.149.135-.151.134-.151.132-.153.13-.155.129-.155.128-.157.126-.159.124-.159.123-.161.121-.162.12-.163.118-.164.117-.166.115-.167.113-.168.112-.169.11-.17.109-.171.107-.173.105-.174.104-.175.101-.176.101-.177.098-.178.097-.179.095-.18.093-.181.092-.183.089-.183.088-.184.087-.186.084-.186.083-.188.08-.188.079-.189.077-.19.076-.192.073-.192.072-.193.069-.194.068-.194.066-.196.064-.197.062-.197.06-.198.058-.199.056-.2.054-.201.052-.202.05-.202.048-.203.047-.204.044-.205.042-.205.04-.206.038-.207.035-.208.034-.208.032-.209.029-.21.028-.21.025-.211.023-.211.021-.213.019-.213.017-.213.014-.214.013-.215.01-.215.008-.216.005-.216.004-.217.001-.218-.001-.17-.002-.17-.003-.17-.005-.17-.006-.169-.008-.168-.009-.169-.01-.168-.012-.167-.013-.168-.014-.167-.016-.166-.017-.166-.018-.166-.02-.165-.02-.165-.023-.165-.023-.164-.025-.164-.026-.163-.027-.163-.029-.162-.03-.162-.031-.162-.033-.161-.033-.16-.035-.161-.036-.159-.038-.159-.039-.159-.039-.158-.042-.158-.042-.158-.044-.156-.044-.157-.046-.155-.047-.156-.049-.154-.049-.155-.051-.153-.052-.153-.053-.153-.054-.152-.056-.152-.056-.15-.058-.151-.059-.15-.06-.149-.061-.149-.062-.148-.063-.147-.065-.147-.065-.146-.067-.146-.068-.145-.069-.144-.07-.144-.071-.143-.072-.143-.073-.142-.075-.141-.075-.141-.076-.14-.078-.139-.078-.139-.08-.138-.08-.137-.082-.137-.083-.136-.083-.135-.085-.135-.086-.133-.086-.133-.088-.133-.089-.132-.089-.131-.091-.13-.092-.129-.092-.129-.094-.128-.094-.128-.096-.126-.096-.126-.098-.125-.098-.124-.099-.123-.101-.123-.101-.122-.102-.121-.103-.12-.103-.12-.105-.119-.106-.117-.106-.117-.108-.117-.108-.115-.109-.115-.11-.113-.111-.113-.112-.112-.113-.111-.113-.111-.114-.109-.116-.108-.116-.108-.116-.107-.118-.106-.119-.105-.119-.104-.12-.103-.121-.102-.121-.102-.123-.1-.123-.1-.124-.098-.125-.098-.126-.096-.126-.096-.127-.095-.128-.094-.128-.093-.13-.092-.13-.09-.131-.09-.131-.089-.132-.088-.133-.087-.134-.086v20.175h-22.03v-20.175l-.133.086z" fill="#f7f7f6"/><g fill="none" stroke="#f7f7f6" stroke-width="3"><path d="m141.455 162.401 2.366.251c2.201 0 3.989 1.496 3.989 3.339l6.999 47.021c.522 3.918-3.839 5.084-6.041 5.084h-4.675c-.509-4.028-4.586-7.171-9.532-7.171h-19.171c-4.946 0-9.022 3.143-9.532 7.171h-4.102c-2.201 0-3.989-1.496-3.989-3.339v-48.766c0-1.843 1.788-3.339 3.989-3.339h1.041v-128.179h32.289v.414l6.369 7.554-6.263 7.498 6.263 7.497-6.263 7.498 6.263 7.497-6.263 7.498 6.263 7.497-6.263 7.498 6.263 7.497-6.263 7.498 6.263 7.497-6.263 7.498 6.263 7.497-6.263 7.498 6.263 7.497-6.263 7.497z"/><path d="m113.137 182.083c-2.323 0-4.209 1.886-4.209 4.209v8.418c0 2.323 1.886 4.208 4.209 4.208h23.678c2.322 0 4.208-1.885 4.208-4.208l-1.065-8.418c-.401-2.536-2.489-4.01-4.765-4.209z"/><path d="m54.868 86.973 8.325-23.243 8.326 23.243v114.958h-16.651z"/></g></svg>