<svg clip-rule="evenodd" fill-rule="evenodd" stroke-linecap="round" stroke-linejoin="round" stroke-miterlimit="1.5" viewBox="0 0 252 252" xmlns="http://www.w3.org/2000/svg" xmlns:xlink="http://www.w3.org/1999/xlink"><clipPath id="a"><path clip-rule="evenodd" d="m234.607 333.513c-34.494-59.746-111.006-80.248-170.753-45.753-59.746 34.495-80.248 111.007-45.753 170.753 34.495 59.747 111.007 80.248 170.753 45.753 59.747-34.494 80.248-111.006 45.753-170.753z"/></clipPath><clipPath id="b"><path clip-rule="evenodd" d="m63.856 17.035c59.747-34.495 136.259-13.993 170.753 45.753 34.495 59.747 13.994 136.259-45.753 170.753-59.746 34.495-136.258 13.994-170.753-45.753-34.495-59.746-13.993-136.258 45.753-170.753z"/></clipPath><path d="m-83.461-36h1111.84v1497.61h-1111.84z" fill="none"/><g clip-path="url(#a)"><path d="m163.727 275.063-195.311 218.754 69.013-251.827z" fill="#808080" fill-opacity=".75" opacity=".5625"/></g><circle cx="126.356" cy="125.288" fill="#2f2e2f" r="125"/><g clip-path="url(#b)"><g opacity=".5625"><path d="m202.621 249.052 64.535-113.063-226.126-132.038-64.535 113.063z" fill="#228ec5"/><g fill="#808080" fill-opacity=".75"><path d="m154.466 1.856 59.767 287.102 66.146-252.595-125.913-34.507z"/><path d="m272.272 67.323-284.9 57.284 251.827 69.013z"/><path d="m88.32 254.451-59.768-287.101-66.145 252.594z"/></g></g></g><g fill="none" stroke="#f7f7f6" stroke-width="3"><path d="m171.166 138.135h25.773"/><path d="m158.234 116.007 22.32-12.886"/><path d="m145.537 93.744 12.886-22.32"/><path d="m107.176 175.08-12.887 22.32"/><path d="m94.478 152.817-22.32 12.886"/><path d="m81.546 130.689h-25.773"/><path d="m110.521 53.176-1.248 29.3"/><path d="m63.921 80.081 26.066 13.603"/><path d="m146.147 99.212c-9.587-16.605-30.851-22.302-47.455-12.716-16.604 9.587-22.302 30.851-12.715 47.455l20.589 35.661c9.586 16.604 30.85 22.302 47.454 12.716 16.605-9.587 22.302-30.851 12.716-47.455z"/><path d="m149.839 107.105-57.392 33.135"/></g></svg>