<svg clip-rule="evenodd" fill-rule="evenodd" stroke-linecap="round" stroke-linejoin="round" stroke-miterlimit="1.41421" viewBox="0 0 252 252" xmlns="http://www.w3.org/2000/svg" xmlns:xlink="http://www.w3.org/1999/xlink"><clipPath id="a"><path clip-rule="evenodd" d="m188.317 288.485c-59.746-34.494-136.258-13.993-170.753 45.753-34.495 59.747-13.993 136.259 45.753 170.754 59.747 34.494 136.259 13.993 170.753-45.754 34.495-59.746 13.994-136.258-45.753-170.753z"/></clipPath><clipPath id="b"><path clip-rule="evenodd" d="m234.068 63.513c-34.494-59.746-111.006-80.248-170.753-45.753-59.746 34.495-80.248 111.007-45.753 170.753 34.495 59.747 111.007 80.248 170.753 45.753 59.747-34.494 80.248-111.006 45.753-170.753z"/></clipPath><clipPath id="c"><path clip-rule="evenodd" d="m63.317-252.965c59.747-34.495 136.259-13.993 170.753 45.753 34.495 59.747 13.994 136.259-45.753 170.753-59.746 34.495-136.258 13.994-170.753-45.753-34.495-59.746-13.993-136.258 45.753-170.753z"/></clipPath><clipPath id="d"><path clip-rule="evenodd" d="m441.77.285c68.99 0 125 56.01 125 125 0 68.989-56.01 125-125 125-68.989 0-125-56.011-125-125 0-68.99 56.011-125 125-125z"/></clipPath><clipPath id="e"><path clip-rule="evenodd" d="m621.445 536.926-456.891 173.928-190.611-500.718 456.891-173.927z"/></clipPath><path d="m-84-306h1111.84v1497.61h-1111.84z" fill="none"/><g clip-path="url(#a)"><path d="m163.853 525.902 59.768-287.102 66.146 252.595z" fill="#808080" fill-opacity=".75" opacity=".5625"/></g><circle cx="125.817" cy="126.013" fill="#2f2e2f" r="125"/><g clip-path="url(#b)"><g fill-opacity=".75" opacity=".5625"><path d="m-2.114 195.063.643-130.182 261.85-1.286-.643 130.183-261.85 1.285z" fill="#ff9100"/><g fill="#808080"><path d="m163.188 5.063-195.311 218.754 69.013-251.827 126.298 33.073z"/><path d="m28.431 2.856 218.088 192.059-252.594-66.146 34.506-125.913z"/><path d="m94.174 256.89 195.311-218.754-69.013 251.827z"/></g></g></g><g fill="none" stroke="#f7f7f6" stroke-width="3"><path d="m40.267 76.013h171.1v100h-171.1z"/><path d="m40.267 76.013h76.337v49.771h-76.337z"/><path d="m78.435 83.031 4.49 12.625h14.531l-11.755 7.803 4.49 12.625-11.756-7.803-11.756 7.803 4.491-12.625-11.756-7.803h14.531z"/><path d="m116.603 100.785h94.764"/><path d="m40.267 150.785h171.1"/><path d="m116.603 125.785h94.764"/></g><g clip-path="url(#c)"><path d="m153.927-268.144 59.767 287.102 66.146-252.595z" fill="#808080" fill-opacity=".75" opacity=".5625"/></g><g clip-path="url(#d)"><path d="m621.445 536.926-456.891 173.928-190.611-500.718 456.891-173.927z" fill="none"/><g clip-path="url(#e)"><path d="m383.527 134.133c-1.24-9.428 1.632-25.099 9.692-45.616 12.494-31.804 36.901-48.028 36.901-48.028s6.126 28.219-6.368 60.023c-8.06 20.517-16.622 33.953-23.947 40.016l3.191 1.254c-16.048 56.16-55.434 157.289-76.649 211.8-58.459 148.811-142.604 363.006-160.415 356.009s66.334-221.191 124.794-370.002c21.472-54.388 62.726-154.834 89.193-206.873z" fill="none" stroke="#f7f7f6" stroke-width="3"/></g></g></svg>